M48
;GenerationSoftware,Autodesk,EAGLE,8.6.0*%
;CreationDate,2018-02-08T04:06:30Z*%
FMAT,2
ICI,OFF
METRIC,TZ,000.000
T11C0.300
T10C0.350
T9C0.432
T8C0.914
T7C1.000
T6C1.016
T5C1.500
T4C1.700
T3C2.286
T2C3.200
T1C4.000
%
G90
M71
T1
X301750Y111750
X50000Y111750
X73750Y31000
X97500Y69000
X69000Y111750
X88000Y111750
X116500Y69000
X92750Y31000
X107000Y111750
X135500Y69000
X135500Y111750
X111750Y31000
X154500Y69000
X154500Y111750
X173500Y111750
X173500Y69000
X130750Y31000
X192500Y111750
X192500Y69000
X221000Y111750
X149750Y31000
X211500Y69000
X240000Y111750
X259000Y111650
X230500Y69000
X228125Y12000
X168750Y31000
X249500Y69000
X278000Y111750
X320750Y111750
X273250Y69000
X187750Y31000
X339750Y111750
X301750Y69000
X363500Y111750
X206750Y31000
X320750Y69000
X12000Y88000
X31000Y88000
X339750Y69000
X225750Y31000
X50000Y88000
X363500Y69000
X69000Y88000
X261375Y31000
X19125Y50000
X88000Y88000
X107000Y88000
X45250Y50000
X320750Y31000
X126000Y88000
X64250Y50000
X145000Y88000
X363500Y31000
X83250Y50000
X164000Y88000
X202000Y88000
X102250Y50000
X14375Y12000
X221000Y88000
X121250Y50000
X240000Y88000
X38125Y12000
X140250Y50000
X268500Y88000
X301750Y88000
X159250Y50000
X61875Y12000
X320750Y88000
X178250Y50000
X339750Y88000
X133125Y12000
X197250Y50000
X363500Y88000
X16750Y69000
X216250Y50000
X204375Y12000
X40500Y69000
X235250Y50000
X59500Y69000
X78500Y69000
X266125Y50000
X183000Y88000
X339750Y12000
X363500Y50000
X320750Y12000
X301750Y12000
X23875Y31000
X275625Y12000
X251875Y12000
X54750Y31000
X12000Y111750
T2
X145000Y69000
X3000Y3000
X372000Y3000
X373000Y121000
X3000Y121000
X104000Y6000
X163000Y6000
X154000Y91000
X29000Y63000
X254000Y92000
X121000Y119000
X206000Y118000
X241000Y25000
X328000Y52000
T3
X296088Y114859
X284048Y114859
T4
X187420Y69000
X197580Y69000
X206420Y69000
X216580Y69000
X225420Y69000
X235580Y69000
X244420Y69000
X254580Y69000
X268170Y69000
X278330Y69000
X296670Y69000
X306830Y69000
X315670Y69000
X325830Y69000
X334670Y69000
X344830Y69000
X358420Y69000
X368580Y69000
X14045Y50000
X24205Y50000
X40170Y50000
X50330Y50000
X59170Y50000
X69330Y50000
X78170Y50000
X88330Y50000
X97170Y50000
X107330Y50000
X116170Y50000
X126330Y50000
X135170Y50000
X145330Y50000
X154170Y50000
X164330Y50000
X173170Y50000
X183330Y50000
X192170Y50000
X202330Y50000
X211170Y50000
X221330Y50000
X230170Y50000
X240330Y50000
X261045Y50000
X271205Y50000
X358420Y50000
X368580Y50000
X18795Y31000
X28955Y31000
X49670Y31000
X59830Y31000
X68670Y31000
X78830Y31000
X87670Y31000
X97830Y31000
X106670Y31000
X116830Y31000
X125670Y31000
X135830Y31000
X144670Y31000
X154830Y31000
X173830Y31000
X182670Y31000
X201670Y31000
X211830Y31000
X220670Y31000
X230830Y31000
X256295Y31000
X266455Y31000
X315670Y31000
X325830Y31000
X358420Y31000
X368580Y31000
X9295Y12000
X19455Y12000
X33045Y12000
X43205Y12000
X56795Y12000
X66955Y12000
X128045Y12000
X138205Y12000
X199295Y12000
X209455Y12000
X101920Y111750
X112080Y111750
X192830Y31000
X130420Y111750
X140580Y111750
X73420Y69000
X149420Y111750
X159580Y111750
X83580Y69000
X168420Y111750
X178580Y111750
X92420Y69000
X187420Y111750
X197580Y111750
X344830Y12000
X215920Y111750
X226080Y111750
X334670Y12000
X234920Y111750
X245080Y111750
X102580Y69000
X253920Y111650
X264080Y111650
X325830Y12000
X272920Y111750
X283080Y111750
X223045Y12000
X296670Y111750
X306830Y111750
X315670Y12000
X315670Y111750
X325830Y111750
X111420Y69000
X334670Y111750
X344830Y111750
X306830Y12000
X358420Y111750
X368580Y111750
X296670Y12000
X6920Y88000
X17080Y88000
X121580Y69000
X25920Y88000
X36080Y88000
X280705Y12000
X44920Y88000
X55080Y88000
X270545Y12000
X63920Y88000
X74080Y88000
X130420Y69000
X82920Y88000
X93080Y88000
X256955Y12000
X101920Y88000
X112080Y88000
X246795Y12000
X120920Y88000
X131080Y88000
X140580Y69000
X139920Y88000
X150080Y88000
X233205Y12000
X158920Y88000
X169080Y88000
X163670Y31000
X177920Y88000
X188080Y88000
X149420Y69000
X196920Y88000
X207080Y88000
X6920Y111750
X215920Y88000
X226080Y88000
X17080Y111750
X234920Y88000
X245080Y88000
X159580Y69000
X263420Y88000
X273580Y88000
X44920Y111750
X296670Y88000
X306830Y88000
X55080Y111750
X315670Y88000
X325830Y88000
X168420Y69000
X334670Y88000
X344830Y88000
X63920Y111750
X358420Y88000
X368580Y88000
X74080Y111750
X11670Y69000
X21830Y69000
X178580Y69000
X35420Y69000
X45580Y69000
X82920Y111750
X54420Y69000
X64580Y69000
X93080Y111750
T5
X72810Y85460
X66460Y82920
X91810Y85460
X85460Y82920
X110810Y85460
X104460Y82920
X129810Y85460
X123460Y82920
X148810Y85460
X142460Y82920
X167810Y85460
X161460Y82920
X186810Y85460
X180460Y82920
X205810Y85460
X199460Y82920
X224810Y85460
X218460Y82920
X243810Y85460
X237460Y82920
X272310Y85460
X265960Y82920
X305560Y85460
X299210Y82920
X324560Y85460
X318210Y82920
X343560Y85460
X337210Y82920
X367310Y85460
X360960Y82920
X20560Y66460
X14210Y63920
X44310Y66460
X37960Y63920
X63310Y66460
X56960Y63920
X82310Y66460
X75960Y63920
X101310Y66460
X94960Y63920
X120310Y66460
X113960Y63920
X139310Y66460
X132960Y63920
X158310Y66460
X151960Y63920
X177310Y66460
X170960Y63920
X196310Y66460
X189960Y63920
X215310Y66460
X208960Y63920
X234310Y66460
X227960Y63920
X253310Y66460
X246960Y63920
X277060Y66460
X270710Y63920
X305560Y66460
X299210Y63920
X324560Y66460
X318210Y63920
X343560Y66460
X337210Y63920
X367310Y66460
X360960Y63920
X22935Y47460
X16585Y44920
X49060Y47460
X42710Y44920
X68060Y47460
X61710Y44920
X87060Y47460
X80710Y44920
X106060Y47460
X99710Y44920
X125060Y47460
X118710Y44920
X144060Y47460
X137710Y44920
X163060Y47460
X156710Y44920
X182060Y47460
X175710Y44920
X201060Y47460
X194710Y44920
X220060Y47460
X213710Y44920
X239060Y47460
X232710Y44920
X269935Y47460
X263585Y44920
X367310Y47460
X360960Y44920
X27685Y28460
X21335Y25920
X58560Y28460
X52210Y25920
X77560Y28460
X71210Y25920
X96560Y28460
X90210Y25920
X115560Y28460
X109210Y25920
X134560Y28460
X153560Y28460
X147210Y25920
X172560Y28460
X166210Y25920
X191560Y28460
X185210Y25920
X210560Y28460
X204210Y25920
X229560Y28460
X223210Y25920
X265185Y28460
X258835Y25920
X324560Y28460
X318210Y25920
X367310Y28460
X360960Y25920
X18185Y9460
X11835Y6920
X41935Y9460
X35585Y6920
X65685Y9460
X59335Y6920
X136935Y9460
X130585Y6920
X208185Y9460
X201835Y6920
X231935Y9460
X225585Y6920
X255685Y9460
X249335Y6920
X279435Y9460
X273085Y6920
X305560Y9460
X299210Y6920
X324560Y9460
X318210Y6920
X343560Y9460
X337210Y6920
X128210Y25920
X15810Y109210
X9460Y106670
X53810Y109210
X47460Y106670
X72810Y109210
X66460Y106670
X91810Y109210
X85460Y106670
X110810Y109210
X104460Y106670
X139310Y109210
X132960Y106670
X158310Y109210
X151960Y106670
X177310Y109210
X170960Y106670
X196310Y109210
X189960Y106670
X224810Y109210
X218460Y106670
X243810Y109210
X237460Y106670
X262810Y109110
X256460Y106570
X281810Y109210
X275460Y106670
X305560Y109210
X299210Y106670
X324560Y109210
X318210Y106670
X343560Y109210
X337210Y106670
X367310Y109210
X360960Y106670
X15810Y85460
X9460Y82920
X34810Y85460
X28460Y82920
X53810Y85460
X47460Y82920
T6
X350774Y111506
X353314Y119126
X353314Y114046
X350774Y114046
X353314Y116586
X353314Y121666
X350139Y73025
X352933Y70485
X350139Y70485
X352933Y67945
X350139Y67945
X352933Y65405
X350139Y65405
X352933Y62865
X350139Y62865
X350774Y98806
X353314Y98806
X350774Y101346
X353314Y101346
X350774Y103886
X350774Y106426
X353314Y103886
X353314Y106426
X350774Y121666
X353314Y111506
X350774Y108966
X350774Y116586
X352933Y73025
X353314Y108966
X350774Y119126
T7
X62980Y55080
X29730Y93080
X84520Y55080
X81980Y55080
X13270Y116830
X51270Y93080
X103520Y55080
X100980Y55080
X48730Y93080
X10730Y116830
X122520Y55080
X119980Y55080
X70270Y93080
X141520Y55080
X138980Y55080
X67730Y93080
X160520Y55080
X157980Y55080
X51270Y116830
X89270Y93080
X179520Y55080
X176980Y55080
X86730Y93080
X48730Y116830
X198520Y55080
X195980Y55080
X108270Y93080
X217520Y55080
X214980Y55080
X105730Y93080
X236520Y55080
X233980Y55080
X70270Y116830
X127270Y93080
X267395Y55080
X264855Y55080
X124730Y93080
X67730Y116830
X364770Y55080
X362230Y55080
X146270Y93080
X25145Y36080
X22605Y36080
X143730Y93080
X56020Y36080
X53480Y36080
X89270Y116830
X165270Y93080
X75020Y36080
X338480Y116830
X72480Y36080
X162730Y93080
X86730Y116830
X94020Y36080
X91480Y36080
X184270Y93080
X113020Y36080
X110480Y36080
X181730Y93080
X132020Y36080
X129480Y36080
X108270Y116830
X151020Y36080
X148480Y36080
X203270Y93080
X200730Y93080
X170020Y36080
X105730Y116830
X189020Y36080
X186480Y36080
X222270Y93080
X219730Y93080
X208020Y36080
X205480Y36080
X136770Y116830
X227020Y36080
X224480Y36080
X241270Y93080
X238730Y93080
X262645Y36080
X260105Y36080
X134230Y116830
X322020Y36080
X319480Y36080
X269770Y93080
X267230Y93080
X364770Y36080
X362230Y36080
X155770Y116830
X15645Y17080
X13105Y17080
X303020Y93080
X300480Y93080
X39395Y17080
X36855Y17080
X153230Y116830
X63145Y17080
X60605Y17080
X322020Y93080
X319480Y93080
X134395Y17080
X131855Y17080
X174770Y116830
X205645Y17080
X203105Y17080
X341020Y93080
X338480Y93080
X229395Y17080
X226855Y17080
X253145Y17080
X250605Y17080
X364770Y93080
X362230Y93080
X276895Y17080
X274355Y17080
X193770Y116830
X303020Y17080
X300480Y17080
X18020Y74080
X15480Y74080
X322020Y17080
X319480Y17080
X191230Y116830
X341020Y17080
X338480Y17080
X172230Y116830
X41770Y74080
X39230Y74080
X222270Y116830
X60770Y74080
X58230Y74080
X219730Y116830
X79770Y74080
X77230Y74080
X241270Y116830
X98770Y74080
X96230Y74080
X238730Y116830
X117770Y74080
X115230Y74080
X260270Y116730
X136770Y74080
X134230Y74080
X257730Y116730
X155770Y74080
X153230Y74080
X279270Y116830
X174770Y74080
X172230Y74080
X276730Y116830
X193770Y74080
X191230Y74080
X303020Y116830
X212770Y74080
X210230Y74080
X300480Y116830
X231770Y74080
X229230Y74080
X322020Y116830
X250770Y74080
X248230Y74080
X319480Y116830
X274520Y74080
X271980Y74080
X341020Y116830
X303020Y74080
X300480Y74080
X167480Y36080
X322020Y74080
X319480Y74080
X364770Y116830
X341020Y74080
X338480Y74080
X362230Y116830
X364770Y74080
X362230Y74080
X13270Y93080
X20395Y55080
X17855Y55080
X10730Y93080
X46520Y55080
X43980Y55080
X32270Y93080
X65520Y55080
T8
X288818Y112141
X291318Y112141
X288818Y110160
X291318Y110160
T9
X276733Y46990
X293116Y76962
X277114Y78740
X283237Y34771
X276352Y49022
X278638Y46990
T10
X338836Y48514
X348488Y90678
X296418Y101092
X292989Y39878
X297688Y37973
X349504Y93218
X336550Y53340
X319278Y48514
X300736Y53340
X282829Y32131
X297434Y44577
X352806Y93218
X293370Y38354
X291338Y40767
X300186Y48238
X317500Y53340
X290830Y38100
X301117Y44831
X291846Y39116
X352044Y93980
X353822Y92964
X297025Y59690
X276860Y59690
X357632Y57658
X342900Y58928
X295910Y77216
X273050Y78232
X281178Y102616
X284734Y101346
X287020Y101092
T11
X284734Y56642
X284734Y54610
X284734Y52324
X284734Y46228
X282702Y46228
X282702Y52324
X282702Y54610
X289052Y45212
X286258Y45720
X296926Y38862
X296926Y40894
X294132Y43180
X294132Y41402
X251206Y49276
X260350Y68580
X255270Y87884
X211074Y85090
X220726Y68580
X225552Y49530
X241808Y30734
X216408Y30988
X197612Y31496
X178562Y7620
X147828Y11684
X97536Y5842
X41402Y28956
X33782Y48006
X29210Y67564
X21844Y87884
X31242Y101346
X121920Y110744
X205486Y110744
X345440Y49784
X351536Y40386
X369570Y5334
X246634Y27178
X120904Y102362
X205994Y103632
X37338Y101346
X7620Y54610
X7112Y32512
X12192Y26670
X107442Y69088
X283591Y39243
X279146Y33147
X292545Y32702
X291148Y42291
X292354Y44132
X293561Y53657
X273685Y24892
X287020Y106426
X274574Y24892
X293561Y55435
X275463Y24892
X293561Y56324
X276352Y24892
X293561Y57213
X277241Y24892
X293561Y58102
X278130Y24892
X293561Y58991
X279019Y24892
X293561Y59880
X279908Y24892
X330200Y18034
X336296Y40005
X337185Y39751
X337947Y39116
X312801Y21463
X312293Y37465
X311404Y37211
X300292Y34989
X310515Y36830
X312674Y60579
X309626Y36576
X311785Y60960
X324866Y59436
X311150Y41275
X309626Y41275
X309209Y35778
X287147Y48831
X307975Y35941
X310515Y60960
X310388Y63119
X299403Y28384
X293751Y51244
X303657Y42672
X292862Y103378
X287020Y82423
X305181Y48577
X274828Y52070
X295910Y43180
X289814Y84963
X273147Y27831
X278384Y50800
X328181Y48577
X332181Y35578
X355181Y33578
X355181Y11577
X358181Y79578
X361181Y96577
X359181Y101577
X296926Y36957
X330962Y17526
X347181Y102577
X330181Y110577
X296291Y30289
X310181Y120577
X289814Y88646
X288181Y98577
X289814Y60833
X285496Y29146
X295275Y49022
X281940Y100838
X288290Y104902
X286004Y102616
X284988Y104648
X284734Y98044
X293561Y54546
X288544Y87757
X282702Y96266
X289179Y87122
X282702Y90932
X370043Y20539
X345948Y19939
X364998Y42418
X346329Y56007
X295910Y62992
X282194Y62865
X284734Y90932
X282702Y84836
X284734Y84836
X282702Y78486
X284734Y78486
X284734Y75692
X365252Y82296
X347599Y82169
X282702Y75692
X282702Y67564
X284734Y67564
X294005Y36957
M30