G04 EAGLE Gerber X2 export*
G75*
%MOMM*%
%FSLAX34Y34*%
%LPD*%
%AMOC8*
5,1,8,0,0,1.08239X$1,22.5*%
G01*
%ADD10C,3.403200*%
%ADD11C,1.879600*%
%ADD12C,3.505200*%
%ADD13C,4.203200*%
%ADD14C,1.903200*%
%ADD15C,2.453200*%
%ADD16C,1.711200*%
%ADD17R,1.803200X0.503200*%
%ADD18R,0.503200X1.803200*%
%ADD19R,0.903200X1.103200*%
%ADD20R,1.503200X1.703200*%
%ADD21R,1.103200X0.903200*%
%ADD22R,1.703200X1.503200*%
%ADD23R,1.803400X1.371600*%
%ADD24C,2.743200*%
%ADD25P,1.869504X8X292.500000*%
%ADD26R,2.103200X1.603200*%
%ADD27C,2.082800*%
%ADD28R,1.371600X1.803400*%
%ADD29R,0.653200X1.653200*%
%ADD30R,1.103200X1.403200*%
%ADD31C,1.473200*%
%ADD32C,1.041400*%


D10*
X30000Y1210000D03*
X3730000Y1210000D03*
X3720000Y30000D03*
X30000Y30000D03*
X1450000Y690000D03*
X3280000Y520000D03*
X2410000Y250000D03*
X2060000Y1180000D03*
X1210000Y1190000D03*
X2540000Y920000D03*
X290000Y630000D03*
X1540000Y910000D03*
X1630000Y60000D03*
X1040000Y60000D03*
D11*
X2913180Y1101598D03*
X2888180Y1101598D03*
X2888180Y1121410D03*
X2913180Y1121410D03*
D12*
X2960878Y1148588D03*
X2840482Y1148588D03*
D13*
X120000Y1117500D03*
D14*
X69200Y1117500D03*
X170800Y1117500D03*
D15*
X158100Y1092100D03*
X94600Y1066700D03*
D16*
X132700Y1168300D03*
X107300Y1168300D03*
D13*
X500000Y1117500D03*
D14*
X449200Y1117500D03*
X550800Y1117500D03*
D15*
X538100Y1092100D03*
X474600Y1066700D03*
D16*
X512700Y1168300D03*
X487300Y1168300D03*
D13*
X690000Y1117500D03*
D14*
X639200Y1117500D03*
X740800Y1117500D03*
D15*
X728100Y1092100D03*
X664600Y1066700D03*
D16*
X702700Y1168300D03*
X677300Y1168300D03*
D13*
X880000Y1117500D03*
D14*
X829200Y1117500D03*
X930800Y1117500D03*
D15*
X918100Y1092100D03*
X854600Y1066700D03*
D16*
X892700Y1168300D03*
X867300Y1168300D03*
D13*
X1070000Y1117500D03*
D14*
X1019200Y1117500D03*
X1120800Y1117500D03*
D15*
X1108100Y1092100D03*
X1044600Y1066700D03*
D16*
X1082700Y1168300D03*
X1057300Y1168300D03*
D13*
X1355000Y1117500D03*
D14*
X1304200Y1117500D03*
X1405800Y1117500D03*
D15*
X1393100Y1092100D03*
X1329600Y1066700D03*
D16*
X1367700Y1168300D03*
X1342300Y1168300D03*
D13*
X1545000Y1117500D03*
D14*
X1494200Y1117500D03*
X1595800Y1117500D03*
D15*
X1583100Y1092100D03*
X1519600Y1066700D03*
D16*
X1557700Y1168300D03*
X1532300Y1168300D03*
D13*
X1735000Y1117500D03*
D14*
X1684200Y1117500D03*
X1785800Y1117500D03*
D15*
X1773100Y1092100D03*
X1709600Y1066700D03*
D16*
X1747700Y1168300D03*
X1722300Y1168300D03*
D13*
X1925000Y1117500D03*
D14*
X1874200Y1117500D03*
X1975800Y1117500D03*
D15*
X1963100Y1092100D03*
X1899600Y1066700D03*
D16*
X1937700Y1168300D03*
X1912300Y1168300D03*
D13*
X2210000Y1117500D03*
D14*
X2159200Y1117500D03*
X2260800Y1117500D03*
D15*
X2248100Y1092100D03*
X2184600Y1066700D03*
D16*
X2222700Y1168300D03*
X2197300Y1168300D03*
D13*
X2400000Y1117500D03*
D14*
X2349200Y1117500D03*
X2450800Y1117500D03*
D15*
X2438100Y1092100D03*
X2374600Y1066700D03*
D16*
X2412700Y1168300D03*
X2387300Y1168300D03*
D13*
X2590000Y1116500D03*
D14*
X2539200Y1116500D03*
X2640800Y1116500D03*
D15*
X2628100Y1091100D03*
X2564600Y1065700D03*
D16*
X2602700Y1167300D03*
X2577300Y1167300D03*
D13*
X2780000Y1117500D03*
D14*
X2729200Y1117500D03*
X2830800Y1117500D03*
D15*
X2818100Y1092100D03*
X2754600Y1066700D03*
D16*
X2792700Y1168300D03*
X2767300Y1168300D03*
D13*
X3017500Y1117500D03*
D14*
X2966700Y1117500D03*
X3068300Y1117500D03*
D15*
X3055600Y1092100D03*
X2992100Y1066700D03*
D16*
X3030200Y1168300D03*
X3004800Y1168300D03*
D13*
X3207500Y1117500D03*
D14*
X3156700Y1117500D03*
X3258300Y1117500D03*
D15*
X3245600Y1092100D03*
X3182100Y1066700D03*
D16*
X3220200Y1168300D03*
X3194800Y1168300D03*
D13*
X3397500Y1117500D03*
D14*
X3346700Y1117500D03*
X3448300Y1117500D03*
D15*
X3435600Y1092100D03*
X3372100Y1066700D03*
D16*
X3410200Y1168300D03*
X3384800Y1168300D03*
D13*
X3635000Y1117500D03*
D14*
X3584200Y1117500D03*
X3685800Y1117500D03*
D15*
X3673100Y1092100D03*
X3609600Y1066700D03*
D16*
X3647700Y1168300D03*
X3622300Y1168300D03*
D13*
X120000Y880000D03*
D14*
X69200Y880000D03*
X170800Y880000D03*
D15*
X158100Y854600D03*
X94600Y829200D03*
D16*
X132700Y930800D03*
X107300Y930800D03*
D13*
X310000Y880000D03*
D14*
X259200Y880000D03*
X360800Y880000D03*
D15*
X348100Y854600D03*
X284600Y829200D03*
D16*
X322700Y930800D03*
X297300Y930800D03*
D13*
X500000Y880000D03*
D14*
X449200Y880000D03*
X550800Y880000D03*
D15*
X538100Y854600D03*
X474600Y829200D03*
D16*
X512700Y930800D03*
X487300Y930800D03*
D13*
X690000Y880000D03*
D14*
X639200Y880000D03*
X740800Y880000D03*
D15*
X728100Y854600D03*
X664600Y829200D03*
D16*
X702700Y930800D03*
X677300Y930800D03*
D13*
X880000Y880000D03*
D14*
X829200Y880000D03*
X930800Y880000D03*
D15*
X918100Y854600D03*
X854600Y829200D03*
D16*
X892700Y930800D03*
X867300Y930800D03*
D13*
X1070000Y880000D03*
D14*
X1019200Y880000D03*
X1120800Y880000D03*
D15*
X1108100Y854600D03*
X1044600Y829200D03*
D16*
X1082700Y930800D03*
X1057300Y930800D03*
D13*
X1260000Y880000D03*
D14*
X1209200Y880000D03*
X1310800Y880000D03*
D15*
X1298100Y854600D03*
X1234600Y829200D03*
D16*
X1272700Y930800D03*
X1247300Y930800D03*
D13*
X1450000Y880000D03*
D14*
X1399200Y880000D03*
X1500800Y880000D03*
D15*
X1488100Y854600D03*
X1424600Y829200D03*
D16*
X1462700Y930800D03*
X1437300Y930800D03*
D13*
X1640000Y880000D03*
D14*
X1589200Y880000D03*
X1690800Y880000D03*
D15*
X1678100Y854600D03*
X1614600Y829200D03*
D16*
X1652700Y930800D03*
X1627300Y930800D03*
D13*
X1830000Y880000D03*
D14*
X1779200Y880000D03*
X1880800Y880000D03*
D15*
X1868100Y854600D03*
X1804600Y829200D03*
D16*
X1842700Y930800D03*
X1817300Y930800D03*
D13*
X2020000Y880000D03*
D14*
X1969200Y880000D03*
X2070800Y880000D03*
D15*
X2058100Y854600D03*
X1994600Y829200D03*
D16*
X2032700Y930800D03*
X2007300Y930800D03*
D13*
X2210000Y880000D03*
D14*
X2159200Y880000D03*
X2260800Y880000D03*
D15*
X2248100Y854600D03*
X2184600Y829200D03*
D16*
X2222700Y930800D03*
X2197300Y930800D03*
D13*
X2400000Y880000D03*
D14*
X2349200Y880000D03*
X2450800Y880000D03*
D15*
X2438100Y854600D03*
X2374600Y829200D03*
D16*
X2412700Y930800D03*
X2387300Y930800D03*
D13*
X2685000Y880000D03*
D14*
X2634200Y880000D03*
X2735800Y880000D03*
D15*
X2723100Y854600D03*
X2659600Y829200D03*
D16*
X2697700Y930800D03*
X2672300Y930800D03*
D13*
X3017500Y880000D03*
D14*
X2966700Y880000D03*
X3068300Y880000D03*
D15*
X3055600Y854600D03*
X2992100Y829200D03*
D16*
X3030200Y930800D03*
X3004800Y930800D03*
D13*
X3207500Y880000D03*
D14*
X3156700Y880000D03*
X3258300Y880000D03*
D15*
X3245600Y854600D03*
X3182100Y829200D03*
D16*
X3220200Y930800D03*
X3194800Y930800D03*
D13*
X3397500Y880000D03*
D14*
X3346700Y880000D03*
X3448300Y880000D03*
D15*
X3435600Y854600D03*
X3372100Y829200D03*
D16*
X3410200Y930800D03*
X3384800Y930800D03*
D13*
X3635000Y880000D03*
D14*
X3584200Y880000D03*
X3685800Y880000D03*
D15*
X3673100Y854600D03*
X3609600Y829200D03*
D16*
X3647700Y930800D03*
X3622300Y930800D03*
D13*
X167500Y690000D03*
D14*
X116700Y690000D03*
X218300Y690000D03*
D15*
X205600Y664600D03*
X142100Y639200D03*
D16*
X180200Y740800D03*
X154800Y740800D03*
D13*
X405000Y690000D03*
D14*
X354200Y690000D03*
X455800Y690000D03*
D15*
X443100Y664600D03*
X379600Y639200D03*
D16*
X417700Y740800D03*
X392300Y740800D03*
D13*
X595000Y690000D03*
D14*
X544200Y690000D03*
X645800Y690000D03*
D15*
X633100Y664600D03*
X569600Y639200D03*
D16*
X607700Y740800D03*
X582300Y740800D03*
D13*
X785000Y690000D03*
D14*
X734200Y690000D03*
X835800Y690000D03*
D15*
X823100Y664600D03*
X759600Y639200D03*
D16*
X797700Y740800D03*
X772300Y740800D03*
D13*
X975000Y690000D03*
D14*
X924200Y690000D03*
X1025800Y690000D03*
D15*
X1013100Y664600D03*
X949600Y639200D03*
D16*
X987700Y740800D03*
X962300Y740800D03*
D13*
X1165000Y690000D03*
D14*
X1114200Y690000D03*
X1215800Y690000D03*
D15*
X1203100Y664600D03*
X1139600Y639200D03*
D16*
X1177700Y740800D03*
X1152300Y740800D03*
D13*
X1355000Y690000D03*
D14*
X1304200Y690000D03*
X1405800Y690000D03*
D15*
X1393100Y664600D03*
X1329600Y639200D03*
D16*
X1367700Y740800D03*
X1342300Y740800D03*
D13*
X1545000Y690000D03*
D14*
X1494200Y690000D03*
X1595800Y690000D03*
D15*
X1583100Y664600D03*
X1519600Y639200D03*
D16*
X1557700Y740800D03*
X1532300Y740800D03*
D13*
X1735000Y690000D03*
D14*
X1684200Y690000D03*
X1785800Y690000D03*
D15*
X1773100Y664600D03*
X1709600Y639200D03*
D16*
X1747700Y740800D03*
X1722300Y740800D03*
D13*
X1925000Y690000D03*
D14*
X1874200Y690000D03*
X1975800Y690000D03*
D15*
X1963100Y664600D03*
X1899600Y639200D03*
D16*
X1937700Y740800D03*
X1912300Y740800D03*
D13*
X2115000Y690000D03*
D14*
X2064200Y690000D03*
X2165800Y690000D03*
D15*
X2153100Y664600D03*
X2089600Y639200D03*
D16*
X2127700Y740800D03*
X2102300Y740800D03*
D13*
X2305000Y690000D03*
D14*
X2254200Y690000D03*
X2355800Y690000D03*
D15*
X2343100Y664600D03*
X2279600Y639200D03*
D16*
X2317700Y740800D03*
X2292300Y740800D03*
D13*
X2495000Y690000D03*
D14*
X2444200Y690000D03*
X2545800Y690000D03*
D15*
X2533100Y664600D03*
X2469600Y639200D03*
D16*
X2507700Y740800D03*
X2482300Y740800D03*
D13*
X2732500Y690000D03*
D14*
X2681700Y690000D03*
X2783300Y690000D03*
D15*
X2770600Y664600D03*
X2707100Y639200D03*
D16*
X2745200Y740800D03*
X2719800Y740800D03*
D13*
X3017500Y690000D03*
D14*
X2966700Y690000D03*
X3068300Y690000D03*
D15*
X3055600Y664600D03*
X2992100Y639200D03*
D16*
X3030200Y740800D03*
X3004800Y740800D03*
D13*
X3207500Y690000D03*
D14*
X3156700Y690000D03*
X3258300Y690000D03*
D15*
X3245600Y664600D03*
X3182100Y639200D03*
D16*
X3220200Y740800D03*
X3194800Y740800D03*
D13*
X3397500Y690000D03*
D14*
X3346700Y690000D03*
X3448300Y690000D03*
D15*
X3435600Y664600D03*
X3372100Y639200D03*
D16*
X3410200Y740800D03*
X3384800Y740800D03*
D13*
X3635000Y690000D03*
D14*
X3584200Y690000D03*
X3685800Y690000D03*
D15*
X3673100Y664600D03*
X3609600Y639200D03*
D16*
X3647700Y740800D03*
X3622300Y740800D03*
D13*
X191250Y500000D03*
D14*
X140450Y500000D03*
X242050Y500000D03*
D15*
X229350Y474600D03*
X165850Y449200D03*
D16*
X203950Y550800D03*
X178550Y550800D03*
D13*
X452500Y500000D03*
D14*
X401700Y500000D03*
X503300Y500000D03*
D15*
X490600Y474600D03*
X427100Y449200D03*
D16*
X465200Y550800D03*
X439800Y550800D03*
D13*
X642500Y500000D03*
D14*
X591700Y500000D03*
X693300Y500000D03*
D15*
X680600Y474600D03*
X617100Y449200D03*
D16*
X655200Y550800D03*
X629800Y550800D03*
D13*
X832500Y500000D03*
D14*
X781700Y500000D03*
X883300Y500000D03*
D15*
X870600Y474600D03*
X807100Y449200D03*
D16*
X845200Y550800D03*
X819800Y550800D03*
D13*
X1022500Y500000D03*
D14*
X971700Y500000D03*
X1073300Y500000D03*
D15*
X1060600Y474600D03*
X997100Y449200D03*
D16*
X1035200Y550800D03*
X1009800Y550800D03*
D13*
X1212500Y500000D03*
D14*
X1161700Y500000D03*
X1263300Y500000D03*
D15*
X1250600Y474600D03*
X1187100Y449200D03*
D16*
X1225200Y550800D03*
X1199800Y550800D03*
D13*
X1402500Y500000D03*
D14*
X1351700Y500000D03*
X1453300Y500000D03*
D15*
X1440600Y474600D03*
X1377100Y449200D03*
D16*
X1415200Y550800D03*
X1389800Y550800D03*
D13*
X1592500Y500000D03*
D14*
X1541700Y500000D03*
X1643300Y500000D03*
D15*
X1630600Y474600D03*
X1567100Y449200D03*
D16*
X1605200Y550800D03*
X1579800Y550800D03*
D13*
X1782500Y500000D03*
D14*
X1731700Y500000D03*
X1833300Y500000D03*
D15*
X1820600Y474600D03*
X1757100Y449200D03*
D16*
X1795200Y550800D03*
X1769800Y550800D03*
D13*
X1972500Y500000D03*
D14*
X1921700Y500000D03*
X2023300Y500000D03*
D15*
X2010600Y474600D03*
X1947100Y449200D03*
D16*
X1985200Y550800D03*
X1959800Y550800D03*
D13*
X2162500Y500000D03*
D14*
X2111700Y500000D03*
X2213300Y500000D03*
D15*
X2200600Y474600D03*
X2137100Y449200D03*
D16*
X2175200Y550800D03*
X2149800Y550800D03*
D13*
X2352500Y500000D03*
D14*
X2301700Y500000D03*
X2403300Y500000D03*
D15*
X2390600Y474600D03*
X2327100Y449200D03*
D16*
X2365200Y550800D03*
X2339800Y550800D03*
D13*
X2661250Y500000D03*
D14*
X2610450Y500000D03*
X2712050Y500000D03*
D15*
X2699350Y474600D03*
X2635850Y449200D03*
D16*
X2673950Y550800D03*
X2648550Y550800D03*
D13*
X3635000Y500000D03*
D14*
X3584200Y500000D03*
X3685800Y500000D03*
D15*
X3673100Y474600D03*
X3609600Y449200D03*
D16*
X3647700Y550800D03*
X3622300Y550800D03*
D13*
X238750Y310000D03*
D14*
X187950Y310000D03*
X289550Y310000D03*
D15*
X276850Y284600D03*
X213350Y259200D03*
D16*
X251450Y360800D03*
X226050Y360800D03*
D13*
X547500Y310000D03*
D14*
X496700Y310000D03*
X598300Y310000D03*
D15*
X585600Y284600D03*
X522100Y259200D03*
D16*
X560200Y360800D03*
X534800Y360800D03*
D13*
X737500Y310000D03*
D14*
X686700Y310000D03*
X788300Y310000D03*
D15*
X775600Y284600D03*
X712100Y259200D03*
D16*
X750200Y360800D03*
X724800Y360800D03*
D13*
X927500Y310000D03*
D14*
X876700Y310000D03*
X978300Y310000D03*
D15*
X965600Y284600D03*
X902100Y259200D03*
D16*
X940200Y360800D03*
X914800Y360800D03*
D13*
X1117500Y310000D03*
D14*
X1066700Y310000D03*
X1168300Y310000D03*
D15*
X1155600Y284600D03*
X1092100Y259200D03*
D16*
X1130200Y360800D03*
X1104800Y360800D03*
D13*
X1307500Y310000D03*
D14*
X1256700Y310000D03*
X1358300Y310000D03*
D15*
X1345600Y284600D03*
X1282100Y259200D03*
D16*
X1320200Y360800D03*
X1294800Y360800D03*
D13*
X1497500Y310000D03*
D14*
X1446700Y310000D03*
X1548300Y310000D03*
D15*
X1535600Y284600D03*
X1472100Y259200D03*
D16*
X1510200Y360800D03*
X1484800Y360800D03*
D13*
X1687500Y310000D03*
D14*
X1636700Y310000D03*
X1738300Y310000D03*
D15*
X1725600Y284600D03*
X1662100Y259200D03*
D16*
X1700200Y360800D03*
X1674800Y360800D03*
D13*
X1877500Y310000D03*
D14*
X1826700Y310000D03*
X1928300Y310000D03*
D15*
X1915600Y284600D03*
X1852100Y259200D03*
D16*
X1890200Y360800D03*
X1864800Y360800D03*
D13*
X2067500Y310000D03*
D14*
X2016700Y310000D03*
X2118300Y310000D03*
D15*
X2105600Y284600D03*
X2042100Y259200D03*
D16*
X2080200Y360800D03*
X2054800Y360800D03*
D13*
X2257500Y310000D03*
D14*
X2206700Y310000D03*
X2308300Y310000D03*
D15*
X2295600Y284600D03*
X2232100Y259200D03*
D16*
X2270200Y360800D03*
X2244800Y360800D03*
D13*
X2613750Y310000D03*
D14*
X2562950Y310000D03*
X2664550Y310000D03*
D15*
X2651850Y284600D03*
X2588350Y259200D03*
D16*
X2626450Y360800D03*
X2601050Y360800D03*
D13*
X3207500Y310000D03*
D14*
X3156700Y310000D03*
X3258300Y310000D03*
D15*
X3245600Y284600D03*
X3182100Y259200D03*
D16*
X3220200Y360800D03*
X3194800Y360800D03*
D13*
X3635000Y310000D03*
D14*
X3584200Y310000D03*
X3685800Y310000D03*
D15*
X3673100Y284600D03*
X3609600Y259200D03*
D16*
X3647700Y360800D03*
X3622300Y360800D03*
D13*
X143750Y120000D03*
D14*
X92950Y120000D03*
X194550Y120000D03*
D15*
X181850Y94600D03*
X118350Y69200D03*
D16*
X156450Y170800D03*
X131050Y170800D03*
D13*
X381250Y120000D03*
D14*
X330450Y120000D03*
X432050Y120000D03*
D15*
X419350Y94600D03*
X355850Y69200D03*
D16*
X393950Y170800D03*
X368550Y170800D03*
D13*
X618750Y120000D03*
D14*
X567950Y120000D03*
X669550Y120000D03*
D15*
X656850Y94600D03*
X593350Y69200D03*
D16*
X631450Y170800D03*
X606050Y170800D03*
D13*
X1331250Y120000D03*
D14*
X1280450Y120000D03*
X1382050Y120000D03*
D15*
X1369350Y94600D03*
X1305850Y69200D03*
D16*
X1343950Y170800D03*
X1318550Y170800D03*
D13*
X2043750Y120000D03*
D14*
X1992950Y120000D03*
X2094550Y120000D03*
D15*
X2081850Y94600D03*
X2018350Y69200D03*
D16*
X2056450Y170800D03*
X2031050Y170800D03*
D13*
X2281250Y120000D03*
D14*
X2230450Y120000D03*
X2332050Y120000D03*
D15*
X2319350Y94600D03*
X2255850Y69200D03*
D16*
X2293950Y170800D03*
X2268550Y170800D03*
D13*
X2518750Y120000D03*
D14*
X2467950Y120000D03*
X2569550Y120000D03*
D15*
X2556850Y94600D03*
X2493350Y69200D03*
D16*
X2531450Y170800D03*
X2506050Y170800D03*
D13*
X2756250Y120000D03*
D14*
X2705450Y120000D03*
X2807050Y120000D03*
D15*
X2794350Y94600D03*
X2730850Y69200D03*
D16*
X2768950Y170800D03*
X2743550Y170800D03*
D13*
X3017500Y120000D03*
D14*
X2966700Y120000D03*
X3068300Y120000D03*
D15*
X3055600Y94600D03*
X2992100Y69200D03*
D16*
X3030200Y170800D03*
X3004800Y170800D03*
D13*
X3207500Y120000D03*
D14*
X3156700Y120000D03*
X3258300Y120000D03*
D15*
X3245600Y94600D03*
X3182100Y69200D03*
D16*
X3220200Y170800D03*
X3194800Y170800D03*
D13*
X3397500Y120000D03*
D14*
X3346700Y120000D03*
X3448300Y120000D03*
D15*
X3435600Y94600D03*
X3372100Y69200D03*
D16*
X3410200Y170800D03*
X3384800Y170800D03*
D17*
X3002900Y401360D03*
X3002900Y406360D03*
X3002900Y411360D03*
X3002900Y416360D03*
X3002900Y421360D03*
X3002900Y426360D03*
X3002900Y431360D03*
X3002900Y436360D03*
X3002900Y441360D03*
X3002900Y396360D03*
X3002900Y391360D03*
X3002900Y386360D03*
X3002900Y381360D03*
X3002900Y376360D03*
X3002900Y371360D03*
X3002900Y366360D03*
D18*
X2943900Y460360D03*
X2948900Y460360D03*
X2953900Y460360D03*
X2958900Y460360D03*
X2963900Y460360D03*
X2968900Y460360D03*
X2973900Y460360D03*
X2978900Y460360D03*
X2983900Y460360D03*
X2938900Y460360D03*
X2933900Y460360D03*
X2928900Y460360D03*
X2923900Y460360D03*
X2918900Y460360D03*
X2913900Y460360D03*
X2908900Y460360D03*
D17*
X2889900Y406360D03*
X2889900Y401360D03*
X2889900Y396360D03*
X2889900Y391360D03*
X2889900Y386360D03*
X2889900Y381360D03*
X2889900Y376360D03*
X2889900Y371360D03*
X2889900Y366360D03*
X2889900Y411360D03*
X2889900Y416360D03*
X2889900Y421360D03*
X2889900Y426360D03*
X2889900Y431360D03*
X2889900Y436360D03*
X2889900Y441360D03*
D18*
X2948900Y347360D03*
X2943900Y347360D03*
X2938900Y347360D03*
X2933900Y347360D03*
X2928900Y347360D03*
X2923900Y347360D03*
X2918900Y347360D03*
X2913900Y347360D03*
X2908900Y347360D03*
X2953900Y347360D03*
X2958900Y347360D03*
X2963900Y347360D03*
X2968900Y347360D03*
X2973900Y347360D03*
X2978900Y347360D03*
X2983900Y347360D03*
D19*
X2858920Y393700D03*
X2845920Y393700D03*
D20*
X2856840Y378460D03*
X2837840Y378460D03*
D19*
X2858920Y408940D03*
X2845920Y408940D03*
D20*
X2778100Y342900D03*
X2759100Y342900D03*
D19*
X2780180Y325120D03*
X2767180Y325120D03*
X2780180Y312420D03*
X2767180Y312420D03*
D21*
X2938780Y481815D03*
X2938780Y494815D03*
D19*
X3036420Y411480D03*
X3049420Y411480D03*
D21*
X2890520Y293520D03*
X2890520Y280520D03*
D22*
X2870200Y291440D03*
X2870200Y272440D03*
D19*
X2936390Y313690D03*
X2923390Y313690D03*
D22*
X2926080Y1073760D03*
X2926080Y1054760D03*
D23*
X2852420Y314960D03*
X2852420Y330200D03*
X2852420Y345440D03*
D24*
X2835275Y278130D03*
D19*
X2962760Y314960D03*
X2975760Y314960D03*
D25*
X3533140Y1216660D03*
X3533140Y1191260D03*
X3533140Y1165860D03*
X3533140Y1140460D03*
X3533140Y1115060D03*
X3533140Y1089660D03*
X3507740Y1216660D03*
X3507740Y1191260D03*
X3507740Y1165860D03*
X3507740Y1140460D03*
X3507740Y1115060D03*
X3507740Y1089660D03*
X3533140Y1064260D03*
X3533140Y1038860D03*
X3507740Y1064260D03*
X3507740Y1038860D03*
X3533140Y1013460D03*
X3507740Y1013460D03*
X3533140Y988060D03*
X3507740Y988060D03*
D26*
X2970940Y262320D03*
X2926940Y262320D03*
X2926940Y286320D03*
X2970940Y286320D03*
D21*
X2969260Y235100D03*
X2969260Y222100D03*
X2928620Y235100D03*
X2928620Y222100D03*
D19*
X2869080Y431800D03*
X2856080Y431800D03*
X2869080Y445770D03*
X2856080Y445770D03*
D27*
X3501390Y628650D03*
X3529330Y628650D03*
X3501390Y654050D03*
X3529330Y654050D03*
X3501390Y679450D03*
X3529330Y679450D03*
X3501390Y704850D03*
X3529330Y704850D03*
X3501390Y730250D03*
X3529330Y730250D03*
D28*
X3495040Y805180D03*
X3510280Y805180D03*
X3525520Y805180D03*
D24*
X3525520Y835660D03*
D19*
X3021480Y518160D03*
X3008480Y518160D03*
X3160880Y518160D03*
X3173880Y518160D03*
X3351380Y518160D03*
X3364380Y518160D03*
D29*
X2773605Y403450D03*
X2767105Y403450D03*
X2780105Y403450D03*
X2786605Y403450D03*
X2786605Y447450D03*
X2780105Y447450D03*
X2773605Y447450D03*
X2767105Y447450D03*
D20*
X2778785Y490220D03*
X2797785Y490220D03*
D21*
X2780030Y383055D03*
X2780030Y370055D03*
X2766695Y383055D03*
X2766695Y370055D03*
D20*
X2750160Y459740D03*
X2731160Y459740D03*
D30*
X127000Y1020000D03*
X93000Y1020000D03*
X127000Y790000D03*
X93000Y790000D03*
X177000Y600000D03*
X143000Y600000D03*
X197000Y410000D03*
X163000Y410000D03*
X247000Y220000D03*
X213000Y220000D03*
X147000Y30000D03*
X113000Y30000D03*
X507000Y1020000D03*
X473000Y1020000D03*
X317000Y790000D03*
X283000Y790000D03*
X417000Y600000D03*
X383000Y600000D03*
X457000Y410000D03*
X423000Y410000D03*
X557000Y220000D03*
X523000Y220000D03*
X417000Y50000D03*
X383000Y50000D03*
X697000Y1020000D03*
X663000Y1020000D03*
X507000Y790000D03*
X473000Y790000D03*
X607000Y600000D03*
X573000Y600000D03*
X657000Y410000D03*
X623000Y410000D03*
X747000Y220000D03*
X713000Y220000D03*
X657000Y50000D03*
X623000Y50000D03*
X887000Y1020000D03*
X853000Y1020000D03*
X697000Y790000D03*
X663000Y790000D03*
X797000Y600000D03*
X763000Y600000D03*
X837000Y410000D03*
X803000Y410000D03*
X937000Y220000D03*
X903000Y220000D03*
X1387000Y50000D03*
X1353000Y50000D03*
X1077000Y1020000D03*
X1043000Y1020000D03*
X887000Y790000D03*
X853000Y790000D03*
X987000Y600000D03*
X953000Y600000D03*
X1027000Y410000D03*
X993000Y410000D03*
X1127000Y220000D03*
X1093000Y220000D03*
X2097000Y50000D03*
X2063000Y50000D03*
X1367000Y1020000D03*
X1333000Y1020000D03*
X1077000Y790000D03*
X1043000Y790000D03*
X1177000Y600000D03*
X1143000Y600000D03*
X1217000Y410000D03*
X1183000Y410000D03*
X1317000Y220000D03*
X1283000Y220000D03*
X2337000Y50000D03*
X2303000Y50000D03*
X1557000Y1020000D03*
X1523000Y1020000D03*
X1267000Y790000D03*
X1233000Y790000D03*
X1367000Y600000D03*
X1333000Y600000D03*
X1407000Y410000D03*
X1373000Y410000D03*
X1507000Y220000D03*
X1473000Y220000D03*
X2567000Y50000D03*
X2533000Y50000D03*
X1747000Y1020000D03*
X1713000Y1020000D03*
X1457000Y790000D03*
X1423000Y790000D03*
X1557000Y600000D03*
X1523000Y600000D03*
X1597000Y410000D03*
X1563000Y410000D03*
X1697000Y220000D03*
X1663000Y220000D03*
X2807000Y50000D03*
X2773000Y50000D03*
X1927000Y1020000D03*
X1893000Y1020000D03*
X1647000Y790000D03*
X1613000Y790000D03*
X1737000Y600000D03*
X1703000Y600000D03*
X1787000Y410000D03*
X1753000Y410000D03*
X1887000Y220000D03*
X1853000Y220000D03*
X3067000Y50000D03*
X3033000Y50000D03*
X2217000Y1020000D03*
X2183000Y1020000D03*
X1837000Y790000D03*
X1803000Y790000D03*
X1937000Y600000D03*
X1903000Y600000D03*
X1977000Y410000D03*
X1943000Y410000D03*
X2077000Y220000D03*
X2043000Y220000D03*
X3257000Y50000D03*
X3223000Y50000D03*
X2407000Y1020000D03*
X2373000Y1020000D03*
X2027000Y790000D03*
X1993000Y790000D03*
X2127000Y600000D03*
X2093000Y600000D03*
X2177000Y410000D03*
X2143000Y410000D03*
X2267000Y220000D03*
X2233000Y220000D03*
X3447000Y50000D03*
X3413000Y50000D03*
X2597000Y1020000D03*
X2563000Y1020000D03*
X2217000Y790000D03*
X2183000Y790000D03*
X2317000Y600000D03*
X2283000Y600000D03*
X2367000Y410000D03*
X2333000Y410000D03*
X2627000Y220000D03*
X2593000Y220000D03*
X2787000Y1020000D03*
X2753000Y1020000D03*
X2407000Y790000D03*
X2373000Y790000D03*
X2507000Y600000D03*
X2473000Y600000D03*
X2677000Y410000D03*
X2643000Y410000D03*
X3217000Y220000D03*
X3183000Y220000D03*
X3027000Y1020000D03*
X2993000Y1020000D03*
X2697000Y790000D03*
X2663000Y790000D03*
X2747000Y600000D03*
X2713000Y600000D03*
X3647000Y410000D03*
X3613000Y410000D03*
X3647000Y220000D03*
X3613000Y220000D03*
X3217000Y1020000D03*
X3183000Y1020000D03*
X3027000Y790000D03*
X2993000Y790000D03*
X3027000Y600000D03*
X2993000Y600000D03*
X3407000Y1020000D03*
X3373000Y1020000D03*
X3217000Y790000D03*
X3183000Y790000D03*
X3217000Y600000D03*
X3183000Y600000D03*
X3647000Y1020000D03*
X3613000Y1020000D03*
X3407000Y790000D03*
X3373000Y790000D03*
X3407000Y600000D03*
X3373000Y600000D03*
X3647000Y790000D03*
X3613000Y790000D03*
X3647000Y600000D03*
X3613000Y600000D03*
D31*
X2825750Y431800D03*
X2825750Y416560D03*
X2825750Y401320D03*
X2825750Y447040D03*
X2871270Y348760D03*
X2871470Y334010D03*
X2870200Y318770D03*
X2891790Y323850D03*
X2891790Y308610D03*
X2891790Y339090D03*
X2891790Y354330D03*
X2908300Y314960D03*
X2992120Y313690D03*
X3007360Y313690D03*
X2898140Y483870D03*
X2898140Y499110D03*
D32*
X2763520Y490220D03*
X2931160Y769620D03*
X2771140Y787400D03*
X2786380Y469900D03*
X2767330Y469900D03*
X2832368Y347712D03*
M02*
