G04 EAGLE Gerber X2 export*
G75*
%MOMM*%
%FSLAX34Y34*%
%LPD*%
%AMOC8*
5,1,8,0,0,1.08239X$1,22.5*%
G01*
%ADD10R,1.600000X0.300000*%
%ADD11R,0.300000X1.600000*%
%ADD12R,0.700000X0.900000*%
%ADD13R,1.300000X1.500000*%
%ADD14R,0.900000X0.700000*%
%ADD15R,1.500000X1.300000*%
%ADD16R,1.600200X1.168400*%
%ADD17R,1.900000X1.400000*%
%ADD18R,1.168400X1.600200*%
%ADD19R,0.450000X1.450000*%
%ADD20R,0.900000X1.200000*%


D10*
X3002900Y401360D03*
X3002900Y406360D03*
X3002900Y411360D03*
X3002900Y416360D03*
X3002900Y421360D03*
X3002900Y426360D03*
X3002900Y431360D03*
X3002900Y436360D03*
X3002900Y441360D03*
X3002900Y396360D03*
X3002900Y391360D03*
X3002900Y386360D03*
X3002900Y381360D03*
X3002900Y376360D03*
X3002900Y371360D03*
X3002900Y366360D03*
D11*
X2943900Y460360D03*
X2948900Y460360D03*
X2953900Y460360D03*
X2958900Y460360D03*
X2963900Y460360D03*
X2968900Y460360D03*
X2973900Y460360D03*
X2978900Y460360D03*
X2983900Y460360D03*
X2938900Y460360D03*
X2933900Y460360D03*
X2928900Y460360D03*
X2923900Y460360D03*
X2918900Y460360D03*
X2913900Y460360D03*
X2908900Y460360D03*
D10*
X2889900Y406360D03*
X2889900Y401360D03*
X2889900Y396360D03*
X2889900Y391360D03*
X2889900Y386360D03*
X2889900Y381360D03*
X2889900Y376360D03*
X2889900Y371360D03*
X2889900Y366360D03*
X2889900Y411360D03*
X2889900Y416360D03*
X2889900Y421360D03*
X2889900Y426360D03*
X2889900Y431360D03*
X2889900Y436360D03*
X2889900Y441360D03*
D11*
X2948900Y347360D03*
X2943900Y347360D03*
X2938900Y347360D03*
X2933900Y347360D03*
X2928900Y347360D03*
X2923900Y347360D03*
X2918900Y347360D03*
X2913900Y347360D03*
X2908900Y347360D03*
X2953900Y347360D03*
X2958900Y347360D03*
X2963900Y347360D03*
X2968900Y347360D03*
X2973900Y347360D03*
X2978900Y347360D03*
X2983900Y347360D03*
D12*
X2858920Y393700D03*
X2845920Y393700D03*
D13*
X2856840Y378460D03*
X2837840Y378460D03*
D12*
X2858920Y408940D03*
X2845920Y408940D03*
D13*
X2778100Y342900D03*
X2759100Y342900D03*
D12*
X2780180Y325120D03*
X2767180Y325120D03*
X2780180Y312420D03*
X2767180Y312420D03*
D14*
X2938780Y481815D03*
X2938780Y494815D03*
D12*
X3036420Y411480D03*
X3049420Y411480D03*
D14*
X2890520Y293520D03*
X2890520Y280520D03*
D15*
X2870200Y291440D03*
X2870200Y272440D03*
D12*
X2936390Y313690D03*
X2923390Y313690D03*
D15*
X2926080Y1073760D03*
X2926080Y1054760D03*
D16*
X2852420Y314960D03*
X2852420Y330200D03*
X2852420Y345440D03*
D12*
X2962760Y314960D03*
X2975760Y314960D03*
D17*
X2970940Y262320D03*
X2926940Y262320D03*
X2926940Y286320D03*
X2970940Y286320D03*
D14*
X2969260Y235100D03*
X2969260Y222100D03*
X2928620Y235100D03*
X2928620Y222100D03*
D12*
X2869080Y431800D03*
X2856080Y431800D03*
X2869080Y445770D03*
X2856080Y445770D03*
D18*
X3495040Y805180D03*
X3510280Y805180D03*
X3525520Y805180D03*
D12*
X3021480Y518160D03*
X3008480Y518160D03*
X3160880Y518160D03*
X3173880Y518160D03*
X3351380Y518160D03*
X3364380Y518160D03*
D19*
X2773605Y403450D03*
X2767105Y403450D03*
X2780105Y403450D03*
X2786605Y403450D03*
X2786605Y447450D03*
X2780105Y447450D03*
X2773605Y447450D03*
X2767105Y447450D03*
D13*
X2778785Y490220D03*
X2797785Y490220D03*
D14*
X2780030Y383055D03*
X2780030Y370055D03*
X2766695Y383055D03*
X2766695Y370055D03*
D13*
X2750160Y459740D03*
X2731160Y459740D03*
D20*
X127000Y1020000D03*
X93000Y1020000D03*
X127000Y790000D03*
X93000Y790000D03*
X177000Y600000D03*
X143000Y600000D03*
X197000Y410000D03*
X163000Y410000D03*
X247000Y220000D03*
X213000Y220000D03*
X147000Y30000D03*
X113000Y30000D03*
X507000Y1020000D03*
X473000Y1020000D03*
X317000Y790000D03*
X283000Y790000D03*
X417000Y600000D03*
X383000Y600000D03*
X457000Y410000D03*
X423000Y410000D03*
X557000Y220000D03*
X523000Y220000D03*
X417000Y50000D03*
X383000Y50000D03*
X697000Y1020000D03*
X663000Y1020000D03*
X507000Y790000D03*
X473000Y790000D03*
X607000Y600000D03*
X573000Y600000D03*
X657000Y410000D03*
X623000Y410000D03*
X747000Y220000D03*
X713000Y220000D03*
X657000Y50000D03*
X623000Y50000D03*
X887000Y1020000D03*
X853000Y1020000D03*
X697000Y790000D03*
X663000Y790000D03*
X797000Y600000D03*
X763000Y600000D03*
X837000Y410000D03*
X803000Y410000D03*
X937000Y220000D03*
X903000Y220000D03*
X1387000Y50000D03*
X1353000Y50000D03*
X1077000Y1020000D03*
X1043000Y1020000D03*
X887000Y790000D03*
X853000Y790000D03*
X987000Y600000D03*
X953000Y600000D03*
X1027000Y410000D03*
X993000Y410000D03*
X1127000Y220000D03*
X1093000Y220000D03*
X2097000Y50000D03*
X2063000Y50000D03*
X1367000Y1020000D03*
X1333000Y1020000D03*
X1077000Y790000D03*
X1043000Y790000D03*
X1177000Y600000D03*
X1143000Y600000D03*
X1217000Y410000D03*
X1183000Y410000D03*
X1317000Y220000D03*
X1283000Y220000D03*
X2337000Y50000D03*
X2303000Y50000D03*
X1557000Y1020000D03*
X1523000Y1020000D03*
X1267000Y790000D03*
X1233000Y790000D03*
X1367000Y600000D03*
X1333000Y600000D03*
X1407000Y410000D03*
X1373000Y410000D03*
X1507000Y220000D03*
X1473000Y220000D03*
X2567000Y50000D03*
X2533000Y50000D03*
X1747000Y1020000D03*
X1713000Y1020000D03*
X1457000Y790000D03*
X1423000Y790000D03*
X1557000Y600000D03*
X1523000Y600000D03*
X1597000Y410000D03*
X1563000Y410000D03*
X1697000Y220000D03*
X1663000Y220000D03*
X2807000Y50000D03*
X2773000Y50000D03*
X1927000Y1020000D03*
X1893000Y1020000D03*
X1647000Y790000D03*
X1613000Y790000D03*
X1737000Y600000D03*
X1703000Y600000D03*
X1787000Y410000D03*
X1753000Y410000D03*
X1887000Y220000D03*
X1853000Y220000D03*
X3067000Y50000D03*
X3033000Y50000D03*
X2217000Y1020000D03*
X2183000Y1020000D03*
X1837000Y790000D03*
X1803000Y790000D03*
X1937000Y600000D03*
X1903000Y600000D03*
X1977000Y410000D03*
X1943000Y410000D03*
X2077000Y220000D03*
X2043000Y220000D03*
X3257000Y50000D03*
X3223000Y50000D03*
X2407000Y1020000D03*
X2373000Y1020000D03*
X2027000Y790000D03*
X1993000Y790000D03*
X2127000Y600000D03*
X2093000Y600000D03*
X2177000Y410000D03*
X2143000Y410000D03*
X2267000Y220000D03*
X2233000Y220000D03*
X3447000Y50000D03*
X3413000Y50000D03*
X2597000Y1020000D03*
X2563000Y1020000D03*
X2217000Y790000D03*
X2183000Y790000D03*
X2317000Y600000D03*
X2283000Y600000D03*
X2367000Y410000D03*
X2333000Y410000D03*
X2627000Y220000D03*
X2593000Y220000D03*
X2787000Y1020000D03*
X2753000Y1020000D03*
X2407000Y790000D03*
X2373000Y790000D03*
X2507000Y600000D03*
X2473000Y600000D03*
X2677000Y410000D03*
X2643000Y410000D03*
X3217000Y220000D03*
X3183000Y220000D03*
X3027000Y1020000D03*
X2993000Y1020000D03*
X2697000Y790000D03*
X2663000Y790000D03*
X2747000Y600000D03*
X2713000Y600000D03*
X3647000Y410000D03*
X3613000Y410000D03*
X3647000Y220000D03*
X3613000Y220000D03*
X3217000Y1020000D03*
X3183000Y1020000D03*
X3027000Y790000D03*
X2993000Y790000D03*
X3027000Y600000D03*
X2993000Y600000D03*
X3407000Y1020000D03*
X3373000Y1020000D03*
X3217000Y790000D03*
X3183000Y790000D03*
X3217000Y600000D03*
X3183000Y600000D03*
X3647000Y1020000D03*
X3613000Y1020000D03*
X3407000Y790000D03*
X3373000Y790000D03*
X3407000Y600000D03*
X3373000Y600000D03*
X3647000Y790000D03*
X3613000Y790000D03*
X3647000Y600000D03*
X3613000Y600000D03*
M02*
