0
SECTION
2
HEADER
9
$INSUNITS
70
4
9
$INSBASE
10
0.0
20
0.0
30
0.0
9
$EXTMIN
10
0
20
0
9
$EXTMAX
10
375.5
20
123.75
0
ENDSEC
0
SECTION
2
TABLES
0
TABLE
2
LTYPE
70
1
0
LTYPE
2
CONTINUOUS
70
64
3
Solid line
72
65
73
0
40
0.0
0
ENDTAB
0
TABLE
2
LAYER
70
1
0
LAYER
2
Layer1
70
64
62
7
6
CONTINUOUS
0
ENDTAB
0
TABLE
2
STYLE
70
0
0
ENDTAB
0
TABLE
2
VIEW
70
0
0
ENDTAB
0
ENDSEC
0
SECTION
2
BLOCKS
0
ENDSEC
0
SECTION
2
ENTITIES
0
POLYLINE
5
61b
8
Layer1
66
1
10
0.0
20
0.0
30
0.0
70
1
0
VERTEX
5
61c
8
Layer1
10
0.0000
20
0.0000
30
0.0
0
VERTEX
5
61d
8
Layer1
10
375.5000
20
0.0000
30
0.0
0
VERTEX
5
61e
8
Layer1
10
375.5000
20
123.7500
30
0.0
0
VERTEX
5
61f
8
Layer1
10
0.0000
20
123.7500
30
0.0
0
VERTEX
5
620
8
Layer1
10
0.0000
20
0.0000
30
0.0
0
SEQEND
5
621
8
Layer1
0
POLYLINE
5
622
8
Layer1
66
1
10
0.0
20
0.0
30
0.0
70
1
0
VERTEX
5
623
8
Layer1
10
19.0000
20
118.7500
30
0.0
0
VERTEX
5
624
8
Layer1
10
5.0000
20
118.7500
30
0.0
0
VERTEX
5
625
8
Layer1
10
5.0000
20
104.7500
30
0.0
0
VERTEX
5
626
8
Layer1
10
19.0000
20
104.7500
30
0.0
0
VERTEX
5
627
8
Layer1
10
19.0000
20
118.7500
30
0.0
0
SEQEND
5
628
8
Layer1
0
POLYLINE
5
629
8
Layer1
66
1
10
0.0
20
0.0
30
0.0
70
1
0
VERTEX
5
62a
8
Layer1
10
57.0000
20
118.7500
30
0.0
0
VERTEX
5
62b
8
Layer1
10
43.0000
20
118.7500
30
0.0
0
VERTEX
5
62c
8
Layer1
10
43.0000
20
104.7500
30
0.0
0
VERTEX
5
62d
8
Layer1
10
57.0000
20
104.7500
30
0.0
0
VERTEX
5
62e
8
Layer1
10
57.0000
20
118.7500
30
0.0
0
SEQEND
5
62f
8
Layer1
0
POLYLINE
5
630
8
Layer1
66
1
10
0.0
20
0.0
30
0.0
70
1
0
VERTEX
5
631
8
Layer1
10
76.0000
20
118.7500
30
0.0
0
VERTEX
5
632
8
Layer1
10
62.0000
20
118.7500
30
0.0
0
VERTEX
5
633
8
Layer1
10
62.0000
20
104.7500
30
0.0
0
VERTEX
5
634
8
Layer1
10
76.0000
20
104.7500
30
0.0
0
VERTEX
5
635
8
Layer1
10
76.0000
20
118.7500
30
0.0
0
SEQEND
5
636
8
Layer1
0
POLYLINE
5
637
8
Layer1
66
1
10
0.0
20
0.0
30
0.0
70
1
0
VERTEX
5
638
8
Layer1
10
95.0000
20
118.7500
30
0.0
0
VERTEX
5
639
8
Layer1
10
81.0000
20
118.7500
30
0.0
0
VERTEX
5
63a
8
Layer1
10
81.0000
20
104.7500
30
0.0
0
VERTEX
5
63b
8
Layer1
10
95.0000
20
104.7500
30
0.0
0
VERTEX
5
63c
8
Layer1
10
95.0000
20
118.7500
30
0.0
0
SEQEND
5
63d
8
Layer1
0
POLYLINE
5
63e
8
Layer1
66
1
10
0.0
20
0.0
30
0.0
70
1
0
VERTEX
5
63f
8
Layer1
10
114.0000
20
118.7500
30
0.0
0
VERTEX
5
640
8
Layer1
10
100.0000
20
118.7500
30
0.0
0
VERTEX
5
641
8
Layer1
10
100.0000
20
104.7500
30
0.0
0
VERTEX
5
642
8
Layer1
10
114.0000
20
104.7500
30
0.0
0
VERTEX
5
643
8
Layer1
10
114.0000
20
118.7500
30
0.0
0
SEQEND
5
644
8
Layer1
0
POLYLINE
5
645
8
Layer1
66
1
10
0.0
20
0.0
30
0.0
70
1
0
VERTEX
5
646
8
Layer1
10
142.5000
20
118.7500
30
0.0
0
VERTEX
5
647
8
Layer1
10
128.5000
20
118.7500
30
0.0
0
VERTEX
5
648
8
Layer1
10
128.5000
20
104.7500
30
0.0
0
VERTEX
5
649
8
Layer1
10
142.5000
20
104.7500
30
0.0
0
VERTEX
5
64a
8
Layer1
10
142.5000
20
118.7500
30
0.0
0
SEQEND
5
64b
8
Layer1
0
POLYLINE
5
64c
8
Layer1
66
1
10
0.0
20
0.0
30
0.0
70
1
0
VERTEX
5
64d
8
Layer1
10
161.5000
20
118.7500
30
0.0
0
VERTEX
5
64e
8
Layer1
10
147.5000
20
118.7500
30
0.0
0
VERTEX
5
64f
8
Layer1
10
147.5000
20
104.7500
30
0.0
0
VERTEX
5
650
8
Layer1
10
161.5000
20
104.7500
30
0.0
0
VERTEX
5
651
8
Layer1
10
161.5000
20
118.7500
30
0.0
0
SEQEND
5
652
8
Layer1
0
POLYLINE
5
653
8
Layer1
66
1
10
0.0
20
0.0
30
0.0
70
1
0
VERTEX
5
654
8
Layer1
10
180.5000
20
118.7500
30
0.0
0
VERTEX
5
655
8
Layer1
10
166.5000
20
118.7500
30
0.0
0
VERTEX
5
656
8
Layer1
10
166.5000
20
104.7500
30
0.0
0
VERTEX
5
657
8
Layer1
10
180.5000
20
104.7500
30
0.0
0
VERTEX
5
658
8
Layer1
10
180.5000
20
118.7500
30
0.0
0
SEQEND
5
659
8
Layer1
0
POLYLINE
5
65a
8
Layer1
66
1
10
0.0
20
0.0
30
0.0
70
1
0
VERTEX
5
65b
8
Layer1
10
199.5000
20
118.7500
30
0.0
0
VERTEX
5
65c
8
Layer1
10
185.5000
20
118.7500
30
0.0
0
VERTEX
5
65d
8
Layer1
10
185.5000
20
104.7500
30
0.0
0
VERTEX
5
65e
8
Layer1
10
199.5000
20
104.7500
30
0.0
0
VERTEX
5
65f
8
Layer1
10
199.5000
20
118.7500
30
0.0
0
SEQEND
5
660
8
Layer1
0
POLYLINE
5
661
8
Layer1
66
1
10
0.0
20
0.0
30
0.0
70
1
0
VERTEX
5
662
8
Layer1
10
228.0000
20
118.7500
30
0.0
0
VERTEX
5
663
8
Layer1
10
214.0000
20
118.7500
30
0.0
0
VERTEX
5
664
8
Layer1
10
214.0000
20
104.7500
30
0.0
0
VERTEX
5
665
8
Layer1
10
228.0000
20
104.7500
30
0.0
0
VERTEX
5
666
8
Layer1
10
228.0000
20
118.7500
30
0.0
0
SEQEND
5
667
8
Layer1
0
POLYLINE
5
668
8
Layer1
66
1
10
0.0
20
0.0
30
0.0
70
1
0
VERTEX
5
669
8
Layer1
10
247.0000
20
118.7500
30
0.0
0
VERTEX
5
66a
8
Layer1
10
233.0000
20
118.7500
30
0.0
0
VERTEX
5
66b
8
Layer1
10
233.0000
20
104.7500
30
0.0
0
VERTEX
5
66c
8
Layer1
10
247.0000
20
104.7500
30
0.0
0
VERTEX
5
66d
8
Layer1
10
247.0000
20
118.7500
30
0.0
0
SEQEND
5
66e
8
Layer1
0
POLYLINE
5
66f
8
Layer1
66
1
10
0.0
20
0.0
30
0.0
70
1
0
VERTEX
5
670
8
Layer1
10
266.0000
20
118.7500
30
0.0
0
VERTEX
5
671
8
Layer1
10
252.0000
20
118.7500
30
0.0
0
VERTEX
5
672
8
Layer1
10
252.0000
20
104.7500
30
0.0
0
VERTEX
5
673
8
Layer1
10
266.0000
20
104.7500
30
0.0
0
VERTEX
5
674
8
Layer1
10
266.0000
20
118.7500
30
0.0
0
SEQEND
5
675
8
Layer1
0
POLYLINE
5
676
8
Layer1
66
1
10
0.0
20
0.0
30
0.0
70
1
0
VERTEX
5
677
8
Layer1
10
285.0000
20
118.7500
30
0.0
0
VERTEX
5
678
8
Layer1
10
271.0000
20
118.7500
30
0.0
0
VERTEX
5
679
8
Layer1
10
271.0000
20
104.7500
30
0.0
0
VERTEX
5
67a
8
Layer1
10
285.0000
20
104.7500
30
0.0
0
VERTEX
5
67b
8
Layer1
10
285.0000
20
118.7500
30
0.0
0
SEQEND
5
67c
8
Layer1
0
POLYLINE
5
67d
8
Layer1
66
1
10
0.0
20
0.0
30
0.0
70
1
0
VERTEX
5
67e
8
Layer1
10
308.7500
20
118.7500
30
0.0
0
VERTEX
5
67f
8
Layer1
10
294.7500
20
118.7500
30
0.0
0
VERTEX
5
680
8
Layer1
10
294.7500
20
104.7500
30
0.0
0
VERTEX
5
681
8
Layer1
10
308.7500
20
104.7500
30
0.0
0
VERTEX
5
682
8
Layer1
10
308.7500
20
118.7500
30
0.0
0
SEQEND
5
683
8
Layer1
0
POLYLINE
5
684
8
Layer1
66
1
10
0.0
20
0.0
30
0.0
70
1
0
VERTEX
5
685
8
Layer1
10
327.7500
20
118.7500
30
0.0
0
VERTEX
5
686
8
Layer1
10
313.7500
20
118.7500
30
0.0
0
VERTEX
5
687
8
Layer1
10
313.7500
20
104.7500
30
0.0
0
VERTEX
5
688
8
Layer1
10
327.7500
20
104.7500
30
0.0
0
VERTEX
5
689
8
Layer1
10
327.7500
20
118.7500
30
0.0
0
SEQEND
5
68a
8
Layer1
0
POLYLINE
5
68b
8
Layer1
66
1
10
0.0
20
0.0
30
0.0
70
1
0
VERTEX
5
68c
8
Layer1
10
346.7500
20
118.7500
30
0.0
0
VERTEX
5
68d
8
Layer1
10
332.7500
20
118.7500
30
0.0
0
VERTEX
5
68e
8
Layer1
10
332.7500
20
104.7500
30
0.0
0
VERTEX
5
68f
8
Layer1
10
346.7500
20
104.7500
30
0.0
0
VERTEX
5
690
8
Layer1
10
346.7500
20
118.7500
30
0.0
0
SEQEND
5
691
8
Layer1
0
POLYLINE
5
692
8
Layer1
66
1
10
0.0
20
0.0
30
0.0
70
1
0
VERTEX
5
693
8
Layer1
10
370.5000
20
118.7500
30
0.0
0
VERTEX
5
694
8
Layer1
10
356.5000
20
118.7500
30
0.0
0
VERTEX
5
695
8
Layer1
10
356.5000
20
104.7500
30
0.0
0
VERTEX
5
696
8
Layer1
10
370.5000
20
104.7500
30
0.0
0
VERTEX
5
697
8
Layer1
10
370.5000
20
118.7500
30
0.0
0
SEQEND
5
698
8
Layer1
0
POLYLINE
5
699
8
Layer1
66
1
10
0.0
20
0.0
30
0.0
70
1
0
VERTEX
5
69a
8
Layer1
10
19.0000
20
95.0000
30
0.0
0
VERTEX
5
69b
8
Layer1
10
5.0000
20
95.0000
30
0.0
0
VERTEX
5
69c
8
Layer1
10
5.0000
20
81.0000
30
0.0
0
VERTEX
5
69d
8
Layer1
10
19.0000
20
81.0000
30
0.0
0
VERTEX
5
69e
8
Layer1
10
19.0000
20
95.0000
30
0.0
0
SEQEND
5
69f
8
Layer1
0
POLYLINE
5
6a0
8
Layer1
66
1
10
0.0
20
0.0
30
0.0
70
1
0
VERTEX
5
6a1
8
Layer1
10
38.0000
20
95.0000
30
0.0
0
VERTEX
5
6a2
8
Layer1
10
24.0000
20
95.0000
30
0.0
0
VERTEX
5
6a3
8
Layer1
10
24.0000
20
81.0000
30
0.0
0
VERTEX
5
6a4
8
Layer1
10
38.0000
20
81.0000
30
0.0
0
VERTEX
5
6a5
8
Layer1
10
38.0000
20
95.0000
30
0.0
0
SEQEND
5
6a6
8
Layer1
0
POLYLINE
5
6a7
8
Layer1
66
1
10
0.0
20
0.0
30
0.0
70
1
0
VERTEX
5
6a8
8
Layer1
10
57.0000
20
95.0000
30
0.0
0
VERTEX
5
6a9
8
Layer1
10
43.0000
20
95.0000
30
0.0
0
VERTEX
5
6aa
8
Layer1
10
43.0000
20
81.0000
30
0.0
0
VERTEX
5
6ab
8
Layer1
10
57.0000
20
81.0000
30
0.0
0
VERTEX
5
6ac
8
Layer1
10
57.0000
20
95.0000
30
0.0
0
SEQEND
5
6ad
8
Layer1
0
POLYLINE
5
6ae
8
Layer1
66
1
10
0.0
20
0.0
30
0.0
70
1
0
VERTEX
5
6af
8
Layer1
10
76.0000
20
95.0000
30
0.0
0
VERTEX
5
6b0
8
Layer1
10
62.0000
20
95.0000
30
0.0
0
VERTEX
5
6b1
8
Layer1
10
62.0000
20
81.0000
30
0.0
0
VERTEX
5
6b2
8
Layer1
10
76.0000
20
81.0000
30
0.0
0
VERTEX
5
6b3
8
Layer1
10
76.0000
20
95.0000
30
0.0
0
SEQEND
5
6b4
8
Layer1
0
POLYLINE
5
6b5
8
Layer1
66
1
10
0.0
20
0.0
30
0.0
70
1
0
VERTEX
5
6b6
8
Layer1
10
95.0000
20
95.0000
30
0.0
0
VERTEX
5
6b7
8
Layer1
10
81.0000
20
95.0000
30
0.0
0
VERTEX
5
6b8
8
Layer1
10
81.0000
20
81.0000
30
0.0
0
VERTEX
5
6b9
8
Layer1
10
95.0000
20
81.0000
30
0.0
0
VERTEX
5
6ba
8
Layer1
10
95.0000
20
95.0000
30
0.0
0
SEQEND
5
6bb
8
Layer1
0
POLYLINE
5
6bc
8
Layer1
66
1
10
0.0
20
0.0
30
0.0
70
1
0
VERTEX
5
6bd
8
Layer1
10
114.0000
20
95.0000
30
0.0
0
VERTEX
5
6be
8
Layer1
10
100.0000
20
95.0000
30
0.0
0
VERTEX
5
6bf
8
Layer1
10
100.0000
20
81.0000
30
0.0
0
VERTEX
5
6c0
8
Layer1
10
114.0000
20
81.0000
30
0.0
0
VERTEX
5
6c1
8
Layer1
10
114.0000
20
95.0000
30
0.0
0
SEQEND
5
6c2
8
Layer1
0
POLYLINE
5
6c3
8
Layer1
66
1
10
0.0
20
0.0
30
0.0
70
1
0
VERTEX
5
6c4
8
Layer1
10
133.0000
20
95.0000
30
0.0
0
VERTEX
5
6c5
8
Layer1
10
119.0000
20
95.0000
30
0.0
0
VERTEX
5
6c6
8
Layer1
10
119.0000
20
81.0000
30
0.0
0
VERTEX
5
6c7
8
Layer1
10
133.0000
20
81.0000
30
0.0
0
VERTEX
5
6c8
8
Layer1
10
133.0000
20
95.0000
30
0.0
0
SEQEND
5
6c9
8
Layer1
0
POLYLINE
5
6ca
8
Layer1
66
1
10
0.0
20
0.0
30
0.0
70
1
0
VERTEX
5
6cb
8
Layer1
10
152.0000
20
95.0000
30
0.0
0
VERTEX
5
6cc
8
Layer1
10
138.0000
20
95.0000
30
0.0
0
VERTEX
5
6cd
8
Layer1
10
138.0000
20
81.0000
30
0.0
0
VERTEX
5
6ce
8
Layer1
10
152.0000
20
81.0000
30
0.0
0
VERTEX
5
6cf
8
Layer1
10
152.0000
20
95.0000
30
0.0
0
SEQEND
5
6d0
8
Layer1
0
POLYLINE
5
6d1
8
Layer1
66
1
10
0.0
20
0.0
30
0.0
70
1
0
VERTEX
5
6d2
8
Layer1
10
171.0000
20
95.0000
30
0.0
0
VERTEX
5
6d3
8
Layer1
10
157.0000
20
95.0000
30
0.0
0
VERTEX
5
6d4
8
Layer1
10
157.0000
20
81.0000
30
0.0
0
VERTEX
5
6d5
8
Layer1
10
171.0000
20
81.0000
30
0.0
0
VERTEX
5
6d6
8
Layer1
10
171.0000
20
95.0000
30
0.0
0
SEQEND
5
6d7
8
Layer1
0
POLYLINE
5
6d8
8
Layer1
66
1
10
0.0
20
0.0
30
0.0
70
1
0
VERTEX
5
6d9
8
Layer1
10
190.0000
20
95.0000
30
0.0
0
VERTEX
5
6da
8
Layer1
10
176.0000
20
95.0000
30
0.0
0
VERTEX
5
6db
8
Layer1
10
176.0000
20
81.0000
30
0.0
0
VERTEX
5
6dc
8
Layer1
10
190.0000
20
81.0000
30
0.0
0
VERTEX
5
6dd
8
Layer1
10
190.0000
20
95.0000
30
0.0
0
SEQEND
5
6de
8
Layer1
0
POLYLINE
5
6df
8
Layer1
66
1
10
0.0
20
0.0
30
0.0
70
1
0
VERTEX
5
6e0
8
Layer1
10
209.0000
20
95.0000
30
0.0
0
VERTEX
5
6e1
8
Layer1
10
195.0000
20
95.0000
30
0.0
0
VERTEX
5
6e2
8
Layer1
10
195.0000
20
81.0000
30
0.0
0
VERTEX
5
6e3
8
Layer1
10
209.0000
20
81.0000
30
0.0
0
VERTEX
5
6e4
8
Layer1
10
209.0000
20
95.0000
30
0.0
0
SEQEND
5
6e5
8
Layer1
0
POLYLINE
5
6e6
8
Layer1
66
1
10
0.0
20
0.0
30
0.0
70
1
0
VERTEX
5
6e7
8
Layer1
10
228.0000
20
95.0000
30
0.0
0
VERTEX
5
6e8
8
Layer1
10
214.0000
20
95.0000
30
0.0
0
VERTEX
5
6e9
8
Layer1
10
214.0000
20
81.0000
30
0.0
0
VERTEX
5
6ea
8
Layer1
10
228.0000
20
81.0000
30
0.0
0
VERTEX
5
6eb
8
Layer1
10
228.0000
20
95.0000
30
0.0
0
SEQEND
5
6ec
8
Layer1
0
POLYLINE
5
6ed
8
Layer1
66
1
10
0.0
20
0.0
30
0.0
70
1
0
VERTEX
5
6ee
8
Layer1
10
247.0000
20
95.0000
30
0.0
0
VERTEX
5
6ef
8
Layer1
10
233.0000
20
95.0000
30
0.0
0
VERTEX
5
6f0
8
Layer1
10
233.0000
20
81.0000
30
0.0
0
VERTEX
5
6f1
8
Layer1
10
247.0000
20
81.0000
30
0.0
0
VERTEX
5
6f2
8
Layer1
10
247.0000
20
95.0000
30
0.0
0
SEQEND
5
6f3
8
Layer1
0
POLYLINE
5
6f4
8
Layer1
66
1
10
0.0
20
0.0
30
0.0
70
1
0
VERTEX
5
6f5
8
Layer1
10
258.1000
20
81.2300
30
0.0
0
VERTEX
5
6f6
8
Layer1
10
259.9250
20
81.2300
30
0.0
0
VERTEX
5
6f7
8
Layer1
10
259.9250
20
87.5000
30
0.0
0
VERTEX
5
6f8
8
Layer1
10
261.5000
20
87.5000
30
0.0
0
VERTEX
5
6f9
8
Layer1
10
261.5000
20
81.0000
30
0.0
0
VERTEX
5
6fa
8
Layer1
10
275.5000
20
81.0000
30
0.0
0
VERTEX
5
6fb
8
Layer1
10
275.5000
20
87.5000
30
0.0
0
VERTEX
5
6fc
8
Layer1
10
277.0750
20
87.5000
30
0.0
0
VERTEX
5
6fd
8
Layer1
10
277.0750
20
81.2300
30
0.0
0
VERTEX
5
6fe
8
Layer1
10
278.9000
20
81.2300
30
0.0
0
VERTEX
5
6ff
8
Layer1
10
278.9000
20
80.0300
30
0.0
0
VERTEX
5
700
8
Layer1
10
281.9000
20
80.0300
30
0.0
0
VERTEX
5
701
8
Layer1
10
281.9000
20
81.2300
30
0.0
0
VERTEX
5
702
8
Layer1
10
283.7250
20
81.2300
30
0.0
0
VERTEX
5
703
8
Layer1
10
283.7250
20
87.5000
30
0.0
0
VERTEX
5
704
8
Layer1
10
284.6000
20
87.5000
30
0.0
0
VERTEX
5
705
8
Layer1
10
284.6000
20
90.3000
30
0.0
0
VERTEX
5
706
8
Layer1
10
283.7250
20
90.3000
30
0.0
0
VERTEX
5
707
8
Layer1
10
283.7250
20
93.5300
30
0.0
0
VERTEX
5
708
8
Layer1
10
277.0750
20
93.5300
30
0.0
0
VERTEX
5
709
8
Layer1
10
277.0750
20
90.3000
30
0.0
0
VERTEX
5
70a
8
Layer1
10
275.5000
20
90.3000
30
0.0
0
VERTEX
5
70b
8
Layer1
10
275.5000
20
95.0000
30
0.0
0
VERTEX
5
70c
8
Layer1
10
261.5000
20
95.0000
30
0.0
0
VERTEX
5
70d
8
Layer1
10
261.5000
20
90.3000
30
0.0
0
VERTEX
5
70e
8
Layer1
10
259.9250
20
90.3000
30
0.0
0
VERTEX
5
70f
8
Layer1
10
259.9250
20
93.5300
30
0.0
0
VERTEX
5
710
8
Layer1
10
253.2750
20
93.5300
30
0.0
0
VERTEX
5
711
8
Layer1
10
253.2750
20
90.3000
30
0.0
0
VERTEX
5
712
8
Layer1
10
252.4000
20
90.3000
30
0.0
0
VERTEX
5
713
8
Layer1
10
252.4000
20
87.5000
30
0.0
0
VERTEX
5
714
8
Layer1
10
253.2750
20
87.5000
30
0.0
0
VERTEX
5
715
8
Layer1
10
253.2750
20
81.2300
30
0.0
0
VERTEX
5
716
8
Layer1
10
255.1000
20
81.2300
30
0.0
0
VERTEX
5
717
8
Layer1
10
255.1000
20
80.0300
30
0.0
0
VERTEX
5
718
8
Layer1
10
258.1000
20
80.0300
30
0.0
0
VERTEX
5
719
8
Layer1
10
258.1000
20
81.2300
30
0.0
0
SEQEND
5
71a
8
Layer1
0
POLYLINE
5
71b
8
Layer1
66
1
10
0.0
20
0.0
30
0.0
70
1
0
VERTEX
5
71c
8
Layer1
10
308.7500
20
95.0000
30
0.0
0
VERTEX
5
71d
8
Layer1
10
294.7500
20
95.0000
30
0.0
0
VERTEX
5
71e
8
Layer1
10
294.7500
20
81.0000
30
0.0
0
VERTEX
5
71f
8
Layer1
10
308.7500
20
81.0000
30
0.0
0
VERTEX
5
720
8
Layer1
10
308.7500
20
95.0000
30
0.0
0
SEQEND
5
721
8
Layer1
0
POLYLINE
5
722
8
Layer1
66
1
10
0.0
20
0.0
30
0.0
70
1
0
VERTEX
5
723
8
Layer1
10
327.7500
20
95.0000
30
0.0
0
VERTEX
5
724
8
Layer1
10
313.7500
20
95.0000
30
0.0
0
VERTEX
5
725
8
Layer1
10
313.7500
20
81.0000
30
0.0
0
VERTEX
5
726
8
Layer1
10
327.7500
20
81.0000
30
0.0
0
VERTEX
5
727
8
Layer1
10
327.7500
20
95.0000
30
0.0
0
SEQEND
5
728
8
Layer1
0
POLYLINE
5
729
8
Layer1
66
1
10
0.0
20
0.0
30
0.0
70
1
0
VERTEX
5
72a
8
Layer1
10
346.7500
20
95.0000
30
0.0
0
VERTEX
5
72b
8
Layer1
10
332.7500
20
95.0000
30
0.0
0
VERTEX
5
72c
8
Layer1
10
332.7500
20
81.0000
30
0.0
0
VERTEX
5
72d
8
Layer1
10
346.7500
20
81.0000
30
0.0
0
VERTEX
5
72e
8
Layer1
10
346.7500
20
95.0000
30
0.0
0
SEQEND
5
72f
8
Layer1
0
POLYLINE
5
730
8
Layer1
66
1
10
0.0
20
0.0
30
0.0
70
1
0
VERTEX
5
731
8
Layer1
10
370.5000
20
95.0000
30
0.0
0
VERTEX
5
732
8
Layer1
10
356.5000
20
95.0000
30
0.0
0
VERTEX
5
733
8
Layer1
10
356.5000
20
81.0000
30
0.0
0
VERTEX
5
734
8
Layer1
10
370.5000
20
81.0000
30
0.0
0
VERTEX
5
735
8
Layer1
10
370.5000
20
95.0000
30
0.0
0
SEQEND
5
736
8
Layer1
0
POLYLINE
5
737
8
Layer1
66
1
10
0.0
20
0.0
30
0.0
70
1
0
VERTEX
5
738
8
Layer1
10
23.7500
20
76.0000
30
0.0
0
VERTEX
5
739
8
Layer1
10
9.7500
20
76.0000
30
0.0
0
VERTEX
5
73a
8
Layer1
10
9.7500
20
62.0000
30
0.0
0
VERTEX
5
73b
8
Layer1
10
23.7500
20
62.0000
30
0.0
0
VERTEX
5
73c
8
Layer1
10
23.7500
20
76.0000
30
0.0
0
SEQEND
5
73d
8
Layer1
0
POLYLINE
5
73e
8
Layer1
66
1
10
0.0
20
0.0
30
0.0
70
1
0
VERTEX
5
73f
8
Layer1
10
47.5000
20
76.0000
30
0.0
0
VERTEX
5
740
8
Layer1
10
33.5000
20
76.0000
30
0.0
0
VERTEX
5
741
8
Layer1
10
33.5000
20
62.0000
30
0.0
0
VERTEX
5
742
8
Layer1
10
47.5000
20
62.0000
30
0.0
0
VERTEX
5
743
8
Layer1
10
47.5000
20
76.0000
30
0.0
0
SEQEND
5
744
8
Layer1
0
POLYLINE
5
745
8
Layer1
66
1
10
0.0
20
0.0
30
0.0
70
1
0
VERTEX
5
746
8
Layer1
10
66.5000
20
76.0000
30
0.0
0
VERTEX
5
747
8
Layer1
10
52.5000
20
76.0000
30
0.0
0
VERTEX
5
748
8
Layer1
10
52.5000
20
62.0000
30
0.0
0
VERTEX
5
749
8
Layer1
10
66.5000
20
62.0000
30
0.0
0
VERTEX
5
74a
8
Layer1
10
66.5000
20
76.0000
30
0.0
0
SEQEND
5
74b
8
Layer1
0
POLYLINE
5
74c
8
Layer1
66
1
10
0.0
20
0.0
30
0.0
70
1
0
VERTEX
5
74d
8
Layer1
10
85.5000
20
76.0000
30
0.0
0
VERTEX
5
74e
8
Layer1
10
71.5000
20
76.0000
30
0.0
0
VERTEX
5
74f
8
Layer1
10
71.5000
20
62.0000
30
0.0
0
VERTEX
5
750
8
Layer1
10
85.5000
20
62.0000
30
0.0
0
VERTEX
5
751
8
Layer1
10
85.5000
20
76.0000
30
0.0
0
SEQEND
5
752
8
Layer1
0
POLYLINE
5
753
8
Layer1
66
1
10
0.0
20
0.0
30
0.0
70
1
0
VERTEX
5
754
8
Layer1
10
104.5000
20
76.0000
30
0.0
0
VERTEX
5
755
8
Layer1
10
90.5000
20
76.0000
30
0.0
0
VERTEX
5
756
8
Layer1
10
90.5000
20
62.0000
30
0.0
0
VERTEX
5
757
8
Layer1
10
104.5000
20
62.0000
30
0.0
0
VERTEX
5
758
8
Layer1
10
104.5000
20
76.0000
30
0.0
0
SEQEND
5
759
8
Layer1
0
POLYLINE
5
75a
8
Layer1
66
1
10
0.0
20
0.0
30
0.0
70
1
0
VERTEX
5
75b
8
Layer1
10
123.5000
20
76.0000
30
0.0
0
VERTEX
5
75c
8
Layer1
10
109.5000
20
76.0000
30
0.0
0
VERTEX
5
75d
8
Layer1
10
109.5000
20
62.0000
30
0.0
0
VERTEX
5
75e
8
Layer1
10
123.5000
20
62.0000
30
0.0
0
VERTEX
5
75f
8
Layer1
10
123.5000
20
76.0000
30
0.0
0
SEQEND
5
760
8
Layer1
0
POLYLINE
5
761
8
Layer1
66
1
10
0.0
20
0.0
30
0.0
70
1
0
VERTEX
5
762
8
Layer1
10
142.5000
20
76.0000
30
0.0
0
VERTEX
5
763
8
Layer1
10
128.5000
20
76.0000
30
0.0
0
VERTEX
5
764
8
Layer1
10
128.5000
20
62.0000
30
0.0
0
VERTEX
5
765
8
Layer1
10
142.5000
20
62.0000
30
0.0
0
VERTEX
5
766
8
Layer1
10
142.5000
20
76.0000
30
0.0
0
SEQEND
5
767
8
Layer1
0
POLYLINE
5
768
8
Layer1
66
1
10
0.0
20
0.0
30
0.0
70
1
0
VERTEX
5
769
8
Layer1
10
161.5000
20
76.0000
30
0.0
0
VERTEX
5
76a
8
Layer1
10
147.5000
20
76.0000
30
0.0
0
VERTEX
5
76b
8
Layer1
10
147.5000
20
62.0000
30
0.0
0
VERTEX
5
76c
8
Layer1
10
161.5000
20
62.0000
30
0.0
0
VERTEX
5
76d
8
Layer1
10
161.5000
20
76.0000
30
0.0
0
SEQEND
5
76e
8
Layer1
0
POLYLINE
5
76f
8
Layer1
66
1
10
0.0
20
0.0
30
0.0
70
1
0
VERTEX
5
770
8
Layer1
10
180.5000
20
76.0000
30
0.0
0
VERTEX
5
771
8
Layer1
10
166.5000
20
76.0000
30
0.0
0
VERTEX
5
772
8
Layer1
10
166.5000
20
62.0000
30
0.0
0
VERTEX
5
773
8
Layer1
10
180.5000
20
62.0000
30
0.0
0
VERTEX
5
774
8
Layer1
10
180.5000
20
76.0000
30
0.0
0
SEQEND
5
775
8
Layer1
0
POLYLINE
5
776
8
Layer1
66
1
10
0.0
20
0.0
30
0.0
70
1
0
VERTEX
5
777
8
Layer1
10
199.5000
20
76.0000
30
0.0
0
VERTEX
5
778
8
Layer1
10
185.5000
20
76.0000
30
0.0
0
VERTEX
5
779
8
Layer1
10
185.5000
20
62.0000
30
0.0
0
VERTEX
5
77a
8
Layer1
10
199.5000
20
62.0000
30
0.0
0
VERTEX
5
77b
8
Layer1
10
199.5000
20
76.0000
30
0.0
0
SEQEND
5
77c
8
Layer1
0
POLYLINE
5
77d
8
Layer1
66
1
10
0.0
20
0.0
30
0.0
70
1
0
VERTEX
5
77e
8
Layer1
10
218.5000
20
76.0000
30
0.0
0
VERTEX
5
77f
8
Layer1
10
204.5000
20
76.0000
30
0.0
0
VERTEX
5
780
8
Layer1
10
204.5000
20
62.0000
30
0.0
0
VERTEX
5
781
8
Layer1
10
218.5000
20
62.0000
30
0.0
0
VERTEX
5
782
8
Layer1
10
218.5000
20
76.0000
30
0.0
0
SEQEND
5
783
8
Layer1
0
POLYLINE
5
784
8
Layer1
66
1
10
0.0
20
0.0
30
0.0
70
1
0
VERTEX
5
785
8
Layer1
10
237.5000
20
76.0000
30
0.0
0
VERTEX
5
786
8
Layer1
10
223.5000
20
76.0000
30
0.0
0
VERTEX
5
787
8
Layer1
10
223.5000
20
62.0000
30
0.0
0
VERTEX
5
788
8
Layer1
10
237.5000
20
62.0000
30
0.0
0
VERTEX
5
789
8
Layer1
10
237.5000
20
76.0000
30
0.0
0
SEQEND
5
78a
8
Layer1
0
POLYLINE
5
78b
8
Layer1
66
1
10
0.0
20
0.0
30
0.0
70
1
0
VERTEX
5
78c
8
Layer1
10
256.5000
20
76.0000
30
0.0
0
VERTEX
5
78d
8
Layer1
10
242.5000
20
76.0000
30
0.0
0
VERTEX
5
78e
8
Layer1
10
242.5000
20
62.0000
30
0.0
0
VERTEX
5
78f
8
Layer1
10
256.5000
20
62.0000
30
0.0
0
VERTEX
5
790
8
Layer1
10
256.5000
20
76.0000
30
0.0
0
SEQEND
5
791
8
Layer1
0
POLYLINE
5
792
8
Layer1
66
1
10
0.0
20
0.0
30
0.0
70
1
0
VERTEX
5
793
8
Layer1
10
280.2500
20
76.0000
30
0.0
0
VERTEX
5
794
8
Layer1
10
266.2500
20
76.0000
30
0.0
0
VERTEX
5
795
8
Layer1
10
266.2500
20
62.0000
30
0.0
0
VERTEX
5
796
8
Layer1
10
280.2500
20
62.0000
30
0.0
0
VERTEX
5
797
8
Layer1
10
280.2500
20
76.0000
30
0.0
0
SEQEND
5
798
8
Layer1
0
POLYLINE
5
799
8
Layer1
66
1
10
0.0
20
0.0
30
0.0
70
1
0
VERTEX
5
79a
8
Layer1
10
308.7500
20
76.0000
30
0.0
0
VERTEX
5
79b
8
Layer1
10
294.7500
20
76.0000
30
0.0
0
VERTEX
5
79c
8
Layer1
10
294.7500
20
62.0000
30
0.0
0
VERTEX
5
79d
8
Layer1
10
308.7500
20
62.0000
30
0.0
0
VERTEX
5
79e
8
Layer1
10
308.7500
20
76.0000
30
0.0
0
SEQEND
5
79f
8
Layer1
0
POLYLINE
5
7a0
8
Layer1
66
1
10
0.0
20
0.0
30
0.0
70
1
0
VERTEX
5
7a1
8
Layer1
10
327.7500
20
76.0000
30
0.0
0
VERTEX
5
7a2
8
Layer1
10
313.7500
20
76.0000
30
0.0
0
VERTEX
5
7a3
8
Layer1
10
313.7500
20
62.0000
30
0.0
0
VERTEX
5
7a4
8
Layer1
10
327.7500
20
62.0000
30
0.0
0
VERTEX
5
7a5
8
Layer1
10
327.7500
20
76.0000
30
0.0
0
SEQEND
5
7a6
8
Layer1
0
POLYLINE
5
7a7
8
Layer1
66
1
10
0.0
20
0.0
30
0.0
70
1
0
VERTEX
5
7a8
8
Layer1
10
346.7500
20
76.0000
30
0.0
0
VERTEX
5
7a9
8
Layer1
10
332.7500
20
76.0000
30
0.0
0
VERTEX
5
7aa
8
Layer1
10
332.7500
20
62.0000
30
0.0
0
VERTEX
5
7ab
8
Layer1
10
346.7500
20
62.0000
30
0.0
0
VERTEX
5
7ac
8
Layer1
10
346.7500
20
76.0000
30
0.0
0
SEQEND
5
7ad
8
Layer1
0
POLYLINE
5
7ae
8
Layer1
66
1
10
0.0
20
0.0
30
0.0
70
1
0
VERTEX
5
7af
8
Layer1
10
370.5000
20
76.0000
30
0.0
0
VERTEX
5
7b0
8
Layer1
10
356.5000
20
76.0000
30
0.0
0
VERTEX
5
7b1
8
Layer1
10
356.5000
20
62.0000
30
0.0
0
VERTEX
5
7b2
8
Layer1
10
370.5000
20
62.0000
30
0.0
0
VERTEX
5
7b3
8
Layer1
10
370.5000
20
76.0000
30
0.0
0
SEQEND
5
7b4
8
Layer1
0
POLYLINE
5
7b5
8
Layer1
66
1
10
0.0
20
0.0
30
0.0
70
1
0
VERTEX
5
7b6
8
Layer1
10
26.1250
20
57.0000
30
0.0
0
VERTEX
5
7b7
8
Layer1
10
12.1250
20
57.0000
30
0.0
0
VERTEX
5
7b8
8
Layer1
10
12.1250
20
43.0000
30
0.0
0
VERTEX
5
7b9
8
Layer1
10
26.1250
20
43.0000
30
0.0
0
VERTEX
5
7ba
8
Layer1
10
26.1250
20
57.0000
30
0.0
0
SEQEND
5
7bb
8
Layer1
0
POLYLINE
5
7bc
8
Layer1
66
1
10
0.0
20
0.0
30
0.0
70
1
0
VERTEX
5
7bd
8
Layer1
10
52.2500
20
57.0000
30
0.0
0
VERTEX
5
7be
8
Layer1
10
38.2500
20
57.0000
30
0.0
0
VERTEX
5
7bf
8
Layer1
10
38.2500
20
43.0000
30
0.0
0
VERTEX
5
7c0
8
Layer1
10
52.2500
20
43.0000
30
0.0
0
VERTEX
5
7c1
8
Layer1
10
52.2500
20
57.0000
30
0.0
0
SEQEND
5
7c2
8
Layer1
0
POLYLINE
5
7c3
8
Layer1
66
1
10
0.0
20
0.0
30
0.0
70
1
0
VERTEX
5
7c4
8
Layer1
10
71.2500
20
57.0000
30
0.0
0
VERTEX
5
7c5
8
Layer1
10
57.2500
20
57.0000
30
0.0
0
VERTEX
5
7c6
8
Layer1
10
57.2500
20
43.0000
30
0.0
0
VERTEX
5
7c7
8
Layer1
10
71.2500
20
43.0000
30
0.0
0
VERTEX
5
7c8
8
Layer1
10
71.2500
20
57.0000
30
0.0
0
SEQEND
5
7c9
8
Layer1
0
POLYLINE
5
7ca
8
Layer1
66
1
10
0.0
20
0.0
30
0.0
70
1
0
VERTEX
5
7cb
8
Layer1
10
90.2500
20
57.0000
30
0.0
0
VERTEX
5
7cc
8
Layer1
10
76.2500
20
57.0000
30
0.0
0
VERTEX
5
7cd
8
Layer1
10
76.2500
20
43.0000
30
0.0
0
VERTEX
5
7ce
8
Layer1
10
90.2500
20
43.0000
30
0.0
0
VERTEX
5
7cf
8
Layer1
10
90.2500
20
57.0000
30
0.0
0
SEQEND
5
7d0
8
Layer1
0
POLYLINE
5
7d1
8
Layer1
66
1
10
0.0
20
0.0
30
0.0
70
1
0
VERTEX
5
7d2
8
Layer1
10
109.2500
20
57.0000
30
0.0
0
VERTEX
5
7d3
8
Layer1
10
95.2500
20
57.0000
30
0.0
0
VERTEX
5
7d4
8
Layer1
10
95.2500
20
43.0000
30
0.0
0
VERTEX
5
7d5
8
Layer1
10
109.2500
20
43.0000
30
0.0
0
VERTEX
5
7d6
8
Layer1
10
109.2500
20
57.0000
30
0.0
0
SEQEND
5
7d7
8
Layer1
0
POLYLINE
5
7d8
8
Layer1
66
1
10
0.0
20
0.0
30
0.0
70
1
0
VERTEX
5
7d9
8
Layer1
10
128.2500
20
57.0000
30
0.0
0
VERTEX
5
7da
8
Layer1
10
114.2500
20
57.0000
30
0.0
0
VERTEX
5
7db
8
Layer1
10
114.2500
20
43.0000
30
0.0
0
VERTEX
5
7dc
8
Layer1
10
128.2500
20
43.0000
30
0.0
0
VERTEX
5
7dd
8
Layer1
10
128.2500
20
57.0000
30
0.0
0
SEQEND
5
7de
8
Layer1
0
POLYLINE
5
7df
8
Layer1
66
1
10
0.0
20
0.0
30
0.0
70
1
0
VERTEX
5
7e0
8
Layer1
10
147.2500
20
57.0000
30
0.0
0
VERTEX
5
7e1
8
Layer1
10
133.2500
20
57.0000
30
0.0
0
VERTEX
5
7e2
8
Layer1
10
133.2500
20
43.0000
30
0.0
0
VERTEX
5
7e3
8
Layer1
10
147.2500
20
43.0000
30
0.0
0
VERTEX
5
7e4
8
Layer1
10
147.2500
20
57.0000
30
0.0
0
SEQEND
5
7e5
8
Layer1
0
POLYLINE
5
7e6
8
Layer1
66
1
10
0.0
20
0.0
30
0.0
70
1
0
VERTEX
5
7e7
8
Layer1
10
166.2500
20
57.0000
30
0.0
0
VERTEX
5
7e8
8
Layer1
10
152.2500
20
57.0000
30
0.0
0
VERTEX
5
7e9
8
Layer1
10
152.2500
20
43.0000
30
0.0
0
VERTEX
5
7ea
8
Layer1
10
166.2500
20
43.0000
30
0.0
0
VERTEX
5
7eb
8
Layer1
10
166.2500
20
57.0000
30
0.0
0
SEQEND
5
7ec
8
Layer1
0
POLYLINE
5
7ed
8
Layer1
66
1
10
0.0
20
0.0
30
0.0
70
1
0
VERTEX
5
7ee
8
Layer1
10
185.2500
20
57.0000
30
0.0
0
VERTEX
5
7ef
8
Layer1
10
171.2500
20
57.0000
30
0.0
0
VERTEX
5
7f0
8
Layer1
10
171.2500
20
43.0000
30
0.0
0
VERTEX
5
7f1
8
Layer1
10
185.2500
20
43.0000
30
0.0
0
VERTEX
5
7f2
8
Layer1
10
185.2500
20
57.0000
30
0.0
0
SEQEND
5
7f3
8
Layer1
0
POLYLINE
5
7f4
8
Layer1
66
1
10
0.0
20
0.0
30
0.0
70
1
0
VERTEX
5
7f5
8
Layer1
10
204.2500
20
57.0000
30
0.0
0
VERTEX
5
7f6
8
Layer1
10
190.2500
20
57.0000
30
0.0
0
VERTEX
5
7f7
8
Layer1
10
190.2500
20
43.0000
30
0.0
0
VERTEX
5
7f8
8
Layer1
10
204.2500
20
43.0000
30
0.0
0
VERTEX
5
7f9
8
Layer1
10
204.2500
20
57.0000
30
0.0
0
SEQEND
5
7fa
8
Layer1
0
POLYLINE
5
7fb
8
Layer1
66
1
10
0.0
20
0.0
30
0.0
70
1
0
VERTEX
5
7fc
8
Layer1
10
223.2500
20
57.0000
30
0.0
0
VERTEX
5
7fd
8
Layer1
10
209.2500
20
57.0000
30
0.0
0
VERTEX
5
7fe
8
Layer1
10
209.2500
20
43.0000
30
0.0
0
VERTEX
5
7ff
8
Layer1
10
223.2500
20
43.0000
30
0.0
0
VERTEX
5
800
8
Layer1
10
223.2500
20
57.0000
30
0.0
0
SEQEND
5
801
8
Layer1
0
POLYLINE
5
802
8
Layer1
66
1
10
0.0
20
0.0
30
0.0
70
1
0
VERTEX
5
803
8
Layer1
10
242.2500
20
57.0000
30
0.0
0
VERTEX
5
804
8
Layer1
10
228.2500
20
57.0000
30
0.0
0
VERTEX
5
805
8
Layer1
10
228.2500
20
43.0000
30
0.0
0
VERTEX
5
806
8
Layer1
10
242.2500
20
43.0000
30
0.0
0
VERTEX
5
807
8
Layer1
10
242.2500
20
57.0000
30
0.0
0
SEQEND
5
808
8
Layer1
0
POLYLINE
5
809
8
Layer1
66
1
10
0.0
20
0.0
30
0.0
70
1
0
VERTEX
5
80a
8
Layer1
10
255.7250
20
43.2300
30
0.0
0
VERTEX
5
80b
8
Layer1
10
257.5500
20
43.2300
30
0.0
0
VERTEX
5
80c
8
Layer1
10
257.5500
20
49.5000
30
0.0
0
VERTEX
5
80d
8
Layer1
10
259.1250
20
49.5000
30
0.0
0
VERTEX
5
80e
8
Layer1
10
259.1250
20
43.0000
30
0.0
0
VERTEX
5
80f
8
Layer1
10
273.1250
20
43.0000
30
0.0
0
VERTEX
5
810
8
Layer1
10
273.1250
20
49.5000
30
0.0
0
VERTEX
5
811
8
Layer1
10
274.7000
20
49.5000
30
0.0
0
VERTEX
5
812
8
Layer1
10
274.7000
20
43.2300
30
0.0
0
VERTEX
5
813
8
Layer1
10
276.5250
20
43.2300
30
0.0
0
VERTEX
5
814
8
Layer1
10
276.5250
20
42.0300
30
0.0
0
VERTEX
5
815
8
Layer1
10
279.5250
20
42.0300
30
0.0
0
VERTEX
5
816
8
Layer1
10
279.5250
20
43.2300
30
0.0
0
VERTEX
5
817
8
Layer1
10
281.3500
20
43.2300
30
0.0
0
VERTEX
5
818
8
Layer1
10
281.3500
20
49.5000
30
0.0
0
VERTEX
5
819
8
Layer1
10
282.2250
20
49.5000
30
0.0
0
VERTEX
5
81a
8
Layer1
10
282.2250
20
52.3000
30
0.0
0
VERTEX
5
81b
8
Layer1
10
281.3500
20
52.3000
30
0.0
0
VERTEX
5
81c
8
Layer1
10
281.3500
20
55.5300
30
0.0
0
VERTEX
5
81d
8
Layer1
10
274.7000
20
55.5300
30
0.0
0
VERTEX
5
81e
8
Layer1
10
274.7000
20
52.3000
30
0.0
0
VERTEX
5
81f
8
Layer1
10
273.1250
20
52.3000
30
0.0
0
VERTEX
5
820
8
Layer1
10
273.1250
20
57.0000
30
0.0
0
VERTEX
5
821
8
Layer1
10
259.1250
20
57.0000
30
0.0
0
VERTEX
5
822
8
Layer1
10
259.1250
20
52.3000
30
0.0
0
VERTEX
5
823
8
Layer1
10
257.5500
20
52.3000
30
0.0
0
VERTEX
5
824
8
Layer1
10
257.5500
20
55.5300
30
0.0
0
VERTEX
5
825
8
Layer1
10
250.9000
20
55.5300
30
0.0
0
VERTEX
5
826
8
Layer1
10
250.9000
20
52.3000
30
0.0
0
VERTEX
5
827
8
Layer1
10
250.0250
20
52.3000
30
0.0
0
VERTEX
5
828
8
Layer1
10
250.0250
20
49.5000
30
0.0
0
VERTEX
5
829
8
Layer1
10
250.9000
20
49.5000
30
0.0
0
VERTEX
5
82a
8
Layer1
10
250.9000
20
43.2300
30
0.0
0
VERTEX
5
82b
8
Layer1
10
252.7250
20
43.2300
30
0.0
0
VERTEX
5
82c
8
Layer1
10
252.7250
20
42.0300
30
0.0
0
VERTEX
5
82d
8
Layer1
10
255.7250
20
42.0300
30
0.0
0
VERTEX
5
82e
8
Layer1
10
255.7250
20
43.2300
30
0.0
0
SEQEND
5
82f
8
Layer1
0
POLYLINE
5
830
8
Layer1
66
1
10
0.0
20
0.0
30
0.0
70
1
0
VERTEX
5
831
8
Layer1
10
370.5000
20
57.0000
30
0.0
0
VERTEX
5
832
8
Layer1
10
356.5000
20
57.0000
30
0.0
0
VERTEX
5
833
8
Layer1
10
356.5000
20
43.0000
30
0.0
0
VERTEX
5
834
8
Layer1
10
370.5000
20
43.0000
30
0.0
0
VERTEX
5
835
8
Layer1
10
370.5000
20
57.0000
30
0.0
0
SEQEND
5
836
8
Layer1
0
POLYLINE
5
837
8
Layer1
66
1
10
0.0
20
0.0
30
0.0
70
1
0
VERTEX
5
838
8
Layer1
10
13.4750
20
24.2300
30
0.0
0
VERTEX
5
839
8
Layer1
10
15.3000
20
24.2300
30
0.0
0
VERTEX
5
83a
8
Layer1
10
15.3000
20
30.5000
30
0.0
0
VERTEX
5
83b
8
Layer1
10
16.8750
20
30.5000
30
0.0
0
VERTEX
5
83c
8
Layer1
10
16.8750
20
24.0000
30
0.0
0
VERTEX
5
83d
8
Layer1
10
30.8750
20
24.0000
30
0.0
0
VERTEX
5
83e
8
Layer1
10
30.8750
20
30.5000
30
0.0
0
VERTEX
5
83f
8
Layer1
10
32.4500
20
30.5000
30
0.0
0
VERTEX
5
840
8
Layer1
10
32.4500
20
24.2300
30
0.0
0
VERTEX
5
841
8
Layer1
10
34.2750
20
24.2300
30
0.0
0
VERTEX
5
842
8
Layer1
10
34.2750
20
23.0300
30
0.0
0
VERTEX
5
843
8
Layer1
10
37.2750
20
23.0300
30
0.0
0
VERTEX
5
844
8
Layer1
10
37.2750
20
24.2300
30
0.0
0
VERTEX
5
845
8
Layer1
10
39.1000
20
24.2300
30
0.0
0
VERTEX
5
846
8
Layer1
10
39.1000
20
30.5000
30
0.0
0
VERTEX
5
847
8
Layer1
10
39.9750
20
30.5000
30
0.0
0
VERTEX
5
848
8
Layer1
10
39.9750
20
33.3000
30
0.0
0
VERTEX
5
849
8
Layer1
10
39.1000
20
33.3000
30
0.0
0
VERTEX
5
84a
8
Layer1
10
39.1000
20
36.5300
30
0.0
0
VERTEX
5
84b
8
Layer1
10
32.4500
20
36.5300
30
0.0
0
VERTEX
5
84c
8
Layer1
10
32.4500
20
33.3000
30
0.0
0
VERTEX
5
84d
8
Layer1
10
30.8750
20
33.3000
30
0.0
0
VERTEX
5
84e
8
Layer1
10
30.8750
20
38.0000
30
0.0
0
VERTEX
5
84f
8
Layer1
10
16.8750
20
38.0000
30
0.0
0
VERTEX
5
850
8
Layer1
10
16.8750
20
33.3000
30
0.0
0
VERTEX
5
851
8
Layer1
10
15.3000
20
33.3000
30
0.0
0
VERTEX
5
852
8
Layer1
10
15.3000
20
36.5300
30
0.0
0
VERTEX
5
853
8
Layer1
10
8.6500
20
36.5300
30
0.0
0
VERTEX
5
854
8
Layer1
10
8.6500
20
33.3000
30
0.0
0
VERTEX
5
855
8
Layer1
10
7.7750
20
33.3000
30
0.0
0
VERTEX
5
856
8
Layer1
10
7.7750
20
30.5000
30
0.0
0
VERTEX
5
857
8
Layer1
10
8.6500
20
30.5000
30
0.0
0
VERTEX
5
858
8
Layer1
10
8.6500
20
24.2300
30
0.0
0
VERTEX
5
859
8
Layer1
10
10.4750
20
24.2300
30
0.0
0
VERTEX
5
85a
8
Layer1
10
10.4750
20
23.0300
30
0.0
0
VERTEX
5
85b
8
Layer1
10
13.4750
20
23.0300
30
0.0
0
VERTEX
5
85c
8
Layer1
10
13.4750
20
24.2300
30
0.0
0
SEQEND
5
85d
8
Layer1
0
POLYLINE
5
85e
8
Layer1
66
1
10
0.0
20
0.0
30
0.0
70
1
0
VERTEX
5
85f
8
Layer1
10
61.7500
20
38.0000
30
0.0
0
VERTEX
5
860
8
Layer1
10
47.7500
20
38.0000
30
0.0
0
VERTEX
5
861
8
Layer1
10
47.7500
20
24.0000
30
0.0
0
VERTEX
5
862
8
Layer1
10
61.7500
20
24.0000
30
0.0
0
VERTEX
5
863
8
Layer1
10
61.7500
20
38.0000
30
0.0
0
SEQEND
5
864
8
Layer1
0
POLYLINE
5
865
8
Layer1
66
1
10
0.0
20
0.0
30
0.0
70
1
0
VERTEX
5
866
8
Layer1
10
80.7500
20
38.0000
30
0.0
0
VERTEX
5
867
8
Layer1
10
66.7500
20
38.0000
30
0.0
0
VERTEX
5
868
8
Layer1
10
66.7500
20
24.0000
30
0.0
0
VERTEX
5
869
8
Layer1
10
80.7500
20
24.0000
30
0.0
0
VERTEX
5
86a
8
Layer1
10
80.7500
20
38.0000
30
0.0
0
SEQEND
5
86b
8
Layer1
0
POLYLINE
5
86c
8
Layer1
66
1
10
0.0
20
0.0
30
0.0
70
1
0
VERTEX
5
86d
8
Layer1
10
99.7500
20
38.0000
30
0.0
0
VERTEX
5
86e
8
Layer1
10
85.7500
20
38.0000
30
0.0
0
VERTEX
5
86f
8
Layer1
10
85.7500
20
24.0000
30
0.0
0
VERTEX
5
870
8
Layer1
10
99.7500
20
24.0000
30
0.0
0
VERTEX
5
871
8
Layer1
10
99.7500
20
38.0000
30
0.0
0
SEQEND
5
872
8
Layer1
0
POLYLINE
5
873
8
Layer1
66
1
10
0.0
20
0.0
30
0.0
70
1
0
VERTEX
5
874
8
Layer1
10
118.7500
20
38.0000
30
0.0
0
VERTEX
5
875
8
Layer1
10
104.7500
20
38.0000
30
0.0
0
VERTEX
5
876
8
Layer1
10
104.7500
20
24.0000
30
0.0
0
VERTEX
5
877
8
Layer1
10
118.7500
20
24.0000
30
0.0
0
VERTEX
5
878
8
Layer1
10
118.7500
20
38.0000
30
0.0
0
SEQEND
5
879
8
Layer1
0
POLYLINE
5
87a
8
Layer1
66
1
10
0.0
20
0.0
30
0.0
70
1
0
VERTEX
5
87b
8
Layer1
10
137.7500
20
38.0000
30
0.0
0
VERTEX
5
87c
8
Layer1
10
123.7500
20
38.0000
30
0.0
0
VERTEX
5
87d
8
Layer1
10
123.7500
20
24.0000
30
0.0
0
VERTEX
5
87e
8
Layer1
10
137.7500
20
24.0000
30
0.0
0
VERTEX
5
87f
8
Layer1
10
137.7500
20
38.0000
30
0.0
0
SEQEND
5
880
8
Layer1
0
POLYLINE
5
881
8
Layer1
66
1
10
0.0
20
0.0
30
0.0
70
1
0
VERTEX
5
882
8
Layer1
10
156.7500
20
38.0000
30
0.0
0
VERTEX
5
883
8
Layer1
10
142.7500
20
38.0000
30
0.0
0
VERTEX
5
884
8
Layer1
10
142.7500
20
24.0000
30
0.0
0
VERTEX
5
885
8
Layer1
10
156.7500
20
24.0000
30
0.0
0
VERTEX
5
886
8
Layer1
10
156.7500
20
38.0000
30
0.0
0
SEQEND
5
887
8
Layer1
0
POLYLINE
5
888
8
Layer1
66
1
10
0.0
20
0.0
30
0.0
70
1
0
VERTEX
5
889
8
Layer1
10
175.7500
20
38.0000
30
0.0
0
VERTEX
5
88a
8
Layer1
10
161.7500
20
38.0000
30
0.0
0
VERTEX
5
88b
8
Layer1
10
161.7500
20
24.0000
30
0.0
0
VERTEX
5
88c
8
Layer1
10
175.7500
20
24.0000
30
0.0
0
VERTEX
5
88d
8
Layer1
10
175.7500
20
38.0000
30
0.0
0
SEQEND
5
88e
8
Layer1
0
POLYLINE
5
88f
8
Layer1
66
1
10
0.0
20
0.0
30
0.0
70
1
0
VERTEX
5
890
8
Layer1
10
194.7500
20
38.0000
30
0.0
0
VERTEX
5
891
8
Layer1
10
180.7500
20
38.0000
30
0.0
0
VERTEX
5
892
8
Layer1
10
180.7500
20
24.0000
30
0.0
0
VERTEX
5
893
8
Layer1
10
194.7500
20
24.0000
30
0.0
0
VERTEX
5
894
8
Layer1
10
194.7500
20
38.0000
30
0.0
0
SEQEND
5
895
8
Layer1
0
POLYLINE
5
896
8
Layer1
66
1
10
0.0
20
0.0
30
0.0
70
1
0
VERTEX
5
897
8
Layer1
10
213.7500
20
38.0000
30
0.0
0
VERTEX
5
898
8
Layer1
10
199.7500
20
38.0000
30
0.0
0
VERTEX
5
899
8
Layer1
10
199.7500
20
24.0000
30
0.0
0
VERTEX
5
89a
8
Layer1
10
213.7500
20
24.0000
30
0.0
0
VERTEX
5
89b
8
Layer1
10
213.7500
20
38.0000
30
0.0
0
SEQEND
5
89c
8
Layer1
0
POLYLINE
5
89d
8
Layer1
66
1
10
0.0
20
0.0
30
0.0
70
1
0
VERTEX
5
89e
8
Layer1
10
232.7500
20
38.0000
30
0.0
0
VERTEX
5
89f
8
Layer1
10
218.7500
20
38.0000
30
0.0
0
VERTEX
5
8a0
8
Layer1
10
218.7500
20
24.0000
30
0.0
0
VERTEX
5
8a1
8
Layer1
10
232.7500
20
24.0000
30
0.0
0
VERTEX
5
8a2
8
Layer1
10
232.7500
20
38.0000
30
0.0
0
SEQEND
5
8a3
8
Layer1
0
POLYLINE
5
8a4
8
Layer1
66
1
10
0.0
20
0.0
30
0.0
70
1
0
VERTEX
5
8a5
8
Layer1
10
250.9750
20
24.2300
30
0.0
0
VERTEX
5
8a6
8
Layer1
10
252.8000
20
24.2300
30
0.0
0
VERTEX
5
8a7
8
Layer1
10
252.8000
20
30.5000
30
0.0
0
VERTEX
5
8a8
8
Layer1
10
254.3750
20
30.5000
30
0.0
0
VERTEX
5
8a9
8
Layer1
10
254.3750
20
24.0000
30
0.0
0
VERTEX
5
8aa
8
Layer1
10
268.3750
20
24.0000
30
0.0
0
VERTEX
5
8ab
8
Layer1
10
268.3750
20
30.5000
30
0.0
0
VERTEX
5
8ac
8
Layer1
10
269.9500
20
30.5000
30
0.0
0
VERTEX
5
8ad
8
Layer1
10
269.9500
20
24.2300
30
0.0
0
VERTEX
5
8ae
8
Layer1
10
271.7750
20
24.2300
30
0.0
0
VERTEX
5
8af
8
Layer1
10
271.7750
20
23.0300
30
0.0
0
VERTEX
5
8b0
8
Layer1
10
274.7750
20
23.0300
30
0.0
0
VERTEX
5
8b1
8
Layer1
10
274.7750
20
24.2300
30
0.0
0
VERTEX
5
8b2
8
Layer1
10
276.6000
20
24.2300
30
0.0
0
VERTEX
5
8b3
8
Layer1
10
276.6000
20
30.5000
30
0.0
0
VERTEX
5
8b4
8
Layer1
10
277.4750
20
30.5000
30
0.0
0
VERTEX
5
8b5
8
Layer1
10
277.4750
20
33.3000
30
0.0
0
VERTEX
5
8b6
8
Layer1
10
276.6000
20
33.3000
30
0.0
0
VERTEX
5
8b7
8
Layer1
10
276.6000
20
36.5300
30
0.0
0
VERTEX
5
8b8
8
Layer1
10
269.9500
20
36.5300
30
0.0
0
VERTEX
5
8b9
8
Layer1
10
269.9500
20
33.3000
30
0.0
0
VERTEX
5
8ba
8
Layer1
10
268.3750
20
33.3000
30
0.0
0
VERTEX
5
8bb
8
Layer1
10
268.3750
20
38.0000
30
0.0
0
VERTEX
5
8bc
8
Layer1
10
254.3750
20
38.0000
30
0.0
0
VERTEX
5
8bd
8
Layer1
10
254.3750
20
33.3000
30
0.0
0
VERTEX
5
8be
8
Layer1
10
252.8000
20
33.3000
30
0.0
0
VERTEX
5
8bf
8
Layer1
10
252.8000
20
36.5300
30
0.0
0
VERTEX
5
8c0
8
Layer1
10
246.1500
20
36.5300
30
0.0
0
VERTEX
5
8c1
8
Layer1
10
246.1500
20
33.3000
30
0.0
0
VERTEX
5
8c2
8
Layer1
10
245.2750
20
33.3000
30
0.0
0
VERTEX
5
8c3
8
Layer1
10
245.2750
20
30.5000
30
0.0
0
VERTEX
5
8c4
8
Layer1
10
246.1500
20
30.5000
30
0.0
0
VERTEX
5
8c5
8
Layer1
10
246.1500
20
24.2300
30
0.0
0
VERTEX
5
8c6
8
Layer1
10
247.9750
20
24.2300
30
0.0
0
VERTEX
5
8c7
8
Layer1
10
247.9750
20
23.0300
30
0.0
0
VERTEX
5
8c8
8
Layer1
10
250.9750
20
23.0300
30
0.0
0
VERTEX
5
8c9
8
Layer1
10
250.9750
20
24.2300
30
0.0
0
SEQEND
5
8ca
8
Layer1
0
POLYLINE
5
8cb
8
Layer1
66
1
10
0.0
20
0.0
30
0.0
70
1
0
VERTEX
5
8cc
8
Layer1
10
327.7500
20
38.0000
30
0.0
0
VERTEX
5
8cd
8
Layer1
10
313.7500
20
38.0000
30
0.0
0
VERTEX
5
8ce
8
Layer1
10
313.7500
20
24.0000
30
0.0
0
VERTEX
5
8cf
8
Layer1
10
327.7500
20
24.0000
30
0.0
0
VERTEX
5
8d0
8
Layer1
10
327.7500
20
38.0000
30
0.0
0
SEQEND
5
8d1
8
Layer1
0
POLYLINE
5
8d2
8
Layer1
66
1
10
0.0
20
0.0
30
0.0
70
1
0
VERTEX
5
8d3
8
Layer1
10
370.5000
20
38.0000
30
0.0
0
VERTEX
5
8d4
8
Layer1
10
356.5000
20
38.0000
30
0.0
0
VERTEX
5
8d5
8
Layer1
10
356.5000
20
24.0000
30
0.0
0
VERTEX
5
8d6
8
Layer1
10
370.5000
20
24.0000
30
0.0
0
VERTEX
5
8d7
8
Layer1
10
370.5000
20
38.0000
30
0.0
0
SEQEND
5
8d8
8
Layer1
0
POLYLINE
5
8d9
8
Layer1
66
1
10
0.0
20
0.0
30
0.0
70
1
0
VERTEX
5
8da
8
Layer1
10
21.3750
20
19.0000
30
0.0
0
VERTEX
5
8db
8
Layer1
10
7.3750
20
19.0000
30
0.0
0
VERTEX
5
8dc
8
Layer1
10
7.3750
20
5.0000
30
0.0
0
VERTEX
5
8dd
8
Layer1
10
21.3750
20
5.0000
30
0.0
0
VERTEX
5
8de
8
Layer1
10
21.3750
20
19.0000
30
0.0
0
SEQEND
5
8df
8
Layer1
0
POLYLINE
5
8e0
8
Layer1
66
1
10
0.0
20
0.0
30
0.0
70
1
0
VERTEX
5
8e1
8
Layer1
10
45.1250
20
19.0000
30
0.0
0
VERTEX
5
8e2
8
Layer1
10
31.1250
20
19.0000
30
0.0
0
VERTEX
5
8e3
8
Layer1
10
31.1250
20
5.0000
30
0.0
0
VERTEX
5
8e4
8
Layer1
10
45.1250
20
5.0000
30
0.0
0
VERTEX
5
8e5
8
Layer1
10
45.1250
20
19.0000
30
0.0
0
SEQEND
5
8e6
8
Layer1
0
POLYLINE
5
8e7
8
Layer1
66
1
10
0.0
20
0.0
30
0.0
70
1
0
VERTEX
5
8e8
8
Layer1
10
68.8750
20
19.0000
30
0.0
0
VERTEX
5
8e9
8
Layer1
10
54.8750
20
19.0000
30
0.0
0
VERTEX
5
8ea
8
Layer1
10
54.8750
20
5.0000
30
0.0
0
VERTEX
5
8eb
8
Layer1
10
68.8750
20
5.0000
30
0.0
0
VERTEX
5
8ec
8
Layer1
10
68.8750
20
19.0000
30
0.0
0
SEQEND
5
8ed
8
Layer1
0
POLYLINE
5
8ee
8
Layer1
66
1
10
0.0
20
0.0
30
0.0
70
1
0
VERTEX
5
8ef
8
Layer1
10
84.6250
20
5.2300
30
0.0
0
VERTEX
5
8f0
8
Layer1
10
86.4500
20
5.2300
30
0.0
0
VERTEX
5
8f1
8
Layer1
10
86.4500
20
9.7000
30
0.0
0
VERTEX
5
8f2
8
Layer1
10
126.1250
20
9.7000
30
0.0
0
VERTEX
5
8f3
8
Layer1
10
126.1250
20
5.0000
30
0.0
0
VERTEX
5
8f4
8
Layer1
10
140.1250
20
5.0000
30
0.0
0
VERTEX
5
8f5
8
Layer1
10
140.1250
20
9.7000
30
0.0
0
VERTEX
5
8f6
8
Layer1
10
179.8000
20
9.7000
30
0.0
0
VERTEX
5
8f7
8
Layer1
10
179.8000
20
5.2300
30
0.0
0
VERTEX
5
8f8
8
Layer1
10
181.6250
20
5.2300
30
0.0
0
VERTEX
5
8f9
8
Layer1
10
181.6250
20
4.0300
30
0.0
0
VERTEX
5
8fa
8
Layer1
10
184.6250
20
4.0300
30
0.0
0
VERTEX
5
8fb
8
Layer1
10
184.6250
20
5.2300
30
0.0
0
VERTEX
5
8fc
8
Layer1
10
186.4500
20
5.2300
30
0.0
0
VERTEX
5
8fd
8
Layer1
10
186.4500
20
11.5000
30
0.0
0
VERTEX
5
8fe
8
Layer1
10
187.3500
20
11.5000
30
0.0
0
VERTEX
5
8ff
8
Layer1
10
187.3500
20
14.3000
30
0.0
0
VERTEX
5
900
8
Layer1
10
186.4500
20
14.3000
30
0.0
0
VERTEX
5
901
8
Layer1
10
186.4500
20
17.5300
30
0.0
0
VERTEX
5
902
8
Layer1
10
179.8000
20
17.5300
30
0.0
0
VERTEX
5
903
8
Layer1
10
179.8000
20
14.3000
30
0.0
0
VERTEX
5
904
8
Layer1
10
140.1250
20
14.3000
30
0.0
0
VERTEX
5
905
8
Layer1
10
140.1250
20
19.0000
30
0.0
0
VERTEX
5
906
8
Layer1
10
126.1250
20
19.0000
30
0.0
0
VERTEX
5
907
8
Layer1
10
126.1250
20
14.3000
30
0.0
0
VERTEX
5
908
8
Layer1
10
86.4500
20
14.3000
30
0.0
0
VERTEX
5
909
8
Layer1
10
86.4500
20
17.5300
30
0.0
0
VERTEX
5
90a
8
Layer1
10
79.8000
20
17.5300
30
0.0
0
VERTEX
5
90b
8
Layer1
10
79.8000
20
14.3000
30
0.0
0
VERTEX
5
90c
8
Layer1
10
78.9000
20
14.3000
30
0.0
0
VERTEX
5
90d
8
Layer1
10
78.9000
20
11.5000
30
0.0
0
VERTEX
5
90e
8
Layer1
10
79.8000
20
11.5000
30
0.0
0
VERTEX
5
90f
8
Layer1
10
79.8000
20
5.2300
30
0.0
0
VERTEX
5
910
8
Layer1
10
81.6250
20
5.2300
30
0.0
0
VERTEX
5
911
8
Layer1
10
81.6250
20
4.0300
30
0.0
0
VERTEX
5
912
8
Layer1
10
84.6250
20
4.0300
30
0.0
0
VERTEX
5
913
8
Layer1
10
84.6250
20
5.2300
30
0.0
0
SEQEND
5
914
8
Layer1
0
POLYLINE
5
915
8
Layer1
66
1
10
0.0
20
0.0
30
0.0
70
1
0
VERTEX
5
916
8
Layer1
10
211.3750
20
19.0000
30
0.0
0
VERTEX
5
917
8
Layer1
10
197.3750
20
19.0000
30
0.0
0
VERTEX
5
918
8
Layer1
10
197.3750
20
5.0000
30
0.0
0
VERTEX
5
919
8
Layer1
10
211.3750
20
5.0000
30
0.0
0
VERTEX
5
91a
8
Layer1
10
211.3750
20
19.0000
30
0.0
0
SEQEND
5
91b
8
Layer1
0
POLYLINE
5
91c
8
Layer1
66
1
10
0.0
20
0.0
30
0.0
70
1
0
VERTEX
5
91d
8
Layer1
10
235.1250
20
19.0000
30
0.0
0
VERTEX
5
91e
8
Layer1
10
221.1250
20
19.0000
30
0.0
0
VERTEX
5
91f
8
Layer1
10
221.1250
20
5.0000
30
0.0
0
VERTEX
5
920
8
Layer1
10
235.1250
20
5.0000
30
0.0
0
VERTEX
5
921
8
Layer1
10
235.1250
20
19.0000
30
0.0
0
SEQEND
5
922
8
Layer1
0
POLYLINE
5
923
8
Layer1
66
1
10
0.0
20
0.0
30
0.0
70
1
0
VERTEX
5
924
8
Layer1
10
258.8750
20
19.0000
30
0.0
0
VERTEX
5
925
8
Layer1
10
244.8750
20
19.0000
30
0.0
0
VERTEX
5
926
8
Layer1
10
244.8750
20
5.0000
30
0.0
0
VERTEX
5
927
8
Layer1
10
258.8750
20
5.0000
30
0.0
0
VERTEX
5
928
8
Layer1
10
258.8750
20
19.0000
30
0.0
0
SEQEND
5
929
8
Layer1
0
POLYLINE
5
92a
8
Layer1
66
1
10
0.0
20
0.0
30
0.0
70
1
0
VERTEX
5
92b
8
Layer1
10
282.6250
20
19.0000
30
0.0
0
VERTEX
5
92c
8
Layer1
10
268.6250
20
19.0000
30
0.0
0
VERTEX
5
92d
8
Layer1
10
268.6250
20
5.0000
30
0.0
0
VERTEX
5
92e
8
Layer1
10
282.6250
20
5.0000
30
0.0
0
VERTEX
5
92f
8
Layer1
10
282.6250
20
19.0000
30
0.0
0
SEQEND
5
930
8
Layer1
0
POLYLINE
5
931
8
Layer1
66
1
10
0.0
20
0.0
30
0.0
70
1
0
VERTEX
5
932
8
Layer1
10
308.7500
20
19.0000
30
0.0
0
VERTEX
5
933
8
Layer1
10
294.7500
20
19.0000
30
0.0
0
VERTEX
5
934
8
Layer1
10
294.7500
20
5.0000
30
0.0
0
VERTEX
5
935
8
Layer1
10
308.7500
20
5.0000
30
0.0
0
VERTEX
5
936
8
Layer1
10
308.7500
20
19.0000
30
0.0
0
SEQEND
5
937
8
Layer1
0
POLYLINE
5
938
8
Layer1
66
1
10
0.0
20
0.0
30
0.0
70
1
0
VERTEX
5
939
8
Layer1
10
327.7500
20
19.0000
30
0.0
0
VERTEX
5
93a
8
Layer1
10
313.7500
20
19.0000
30
0.0
0
VERTEX
5
93b
8
Layer1
10
313.7500
20
5.0000
30
0.0
0
VERTEX
5
93c
8
Layer1
10
327.7500
20
5.0000
30
0.0
0
VERTEX
5
93d
8
Layer1
10
327.7500
20
19.0000
30
0.0
0
SEQEND
5
93e
8
Layer1
0
POLYLINE
5
93f
8
Layer1
66
1
10
0.0
20
0.0
30
0.0
70
1
0
VERTEX
5
940
8
Layer1
10
346.7500
20
19.0000
30
0.0
0
VERTEX
5
941
8
Layer1
10
332.7500
20
19.0000
30
0.0
0
VERTEX
5
942
8
Layer1
10
332.7500
20
5.0000
30
0.0
0
VERTEX
5
943
8
Layer1
10
346.7500
20
5.0000
30
0.0
0
VERTEX
5
944
8
Layer1
10
346.7500
20
19.0000
30
0.0
0
SEQEND
5
945
8
Layer1
0
ENDSEC
0
EOF
