%
M48
M72
T01C0.01181
T02C0.01378
T03C0.01700
T04C0.03600
T05C0.03937
T06C0.04000
T07C0.05906
T08C0.06693
T09C0.09000
T10C0.13386
T11C0.15748
%
T01
X49300Y106300
X29300Y129300
X164300Y115300
X134300Y190300
X31300Y216300
X116300Y267300
X87300Y347300
X124300Y400300
X148300Y400300
X477300Y404300
X481300Y437300
X810300Y437300
X812300Y409300
X832300Y336300
X870300Y271300
X1026300Y271300
X1111800Y253800
X1112300Y248800
X1142300Y240800
X1157050Y237050
X1157050Y233550
X1157050Y230050
X1157050Y226550
X1157050Y223050
X1157050Y219550
X1157050Y216050
X1157050Y212550
X1157800Y203050
X1163800Y194300
X1131800Y193550
X1128300Y181300
X1122300Y183300
X1114300Y183300
X1139300Y179300
X1152300Y175050
X1159300Y171300
X1166300Y171300
X1159300Y164300
X1170300Y162300
X1170300Y154300
X1170300Y146800
X1158800Y146800
X1183550Y139050
X1213800Y142800
X1218659Y142159
X1220300Y145300
X1223800Y146300
X1227300Y147800
X1230800Y148800
X1226300Y163800
X1220300Y163800
X1196800Y169300
X1147550Y167800
X1131300Y166300
X1121300Y167300
X1115300Y172300
X1097300Y201300
X1083300Y206300
X1114300Y207300
X1122300Y207300
X1122300Y216300
X1114300Y216300
X1122300Y224300
X1166300Y249300
X1166800Y259300
X1122300Y267300
X1114300Y267300
X1114300Y282300
X1122300Y282300
X1122300Y299300
X1114300Y299300
X1114300Y310300
X1122300Y310300
X1106800Y316300
X1114485Y323015
X1122485Y323015
X1131300Y325800
X1122300Y335300
X1114300Y335300
X1142300Y335800
X1139800Y344300
X1137300Y346800
X1142300Y350300
X1122485Y347015
X1114485Y347015
X1114300Y359300
X1122300Y359300
X1122485Y372015
X1114485Y372015
X1114300Y380300
X1122300Y387300
X1135871Y389400
X1111300Y398300
X1127300Y405300
X1123300Y413300
X1131300Y420300
X1136300Y414300
X1154300Y408300
X1301225Y436644
X1368154Y405148
X1415398Y401211
X1423272Y381526
X1380485Y381015
X1369800Y324800
X1411461Y314597
X1439300Y325300
X1347300Y251300
X1280300Y235300
X1232300Y239800
X1228800Y241300
X1223800Y241300
X1223300Y249800
X1364800Y221800
X1361300Y197300
X1293351Y192550
X1325300Y158800
X1328800Y157800
X1331800Y155300
X1309099Y141369
X1385300Y160300
X1438300Y168300
X1399650Y133495
X1458164Y82164
X1363300Y79800
X1304300Y70300
X1301300Y72300
X1232800Y85800
X1180050Y113050
X1167800Y120550
X1125300Y116050
X1103300Y99300
X1099800Y99300
X1096300Y99300
X1092800Y99300
X1089300Y99300
X1085800Y99300
X1082300Y99300
X1078800Y99300
X1076682Y110873
X1043300Y72300
X1055800Y40800
X972300Y108300
X953300Y122300
X853300Y123300
X779300Y125300
X889300Y196300
X990300Y195300
X1202800Y192550
X1441800Y249300
X1161300Y316300
X1006300Y347300
X1222485Y476015
X1362485Y481015
X1408485Y481015
X424300Y273300
X583300Y47300
X704300Y31300
X385300Y24300
X1399650Y46881
X1456300Y22300
T02
X1151300Y145300
X1146300Y151300
X1156300Y152300
X1132300Y149300
X1132300Y144300
X1183136Y191214
X1185300Y211300
X1251300Y211300
X1258300Y192300
X1326300Y211300
X1335300Y192300
X1373300Y358300
X1377300Y368300
X1387300Y371300
X1390300Y368300
X1394300Y367300
T03
X1155300Y304300
X1092300Y311300
X1089300Y194300
X1090800Y186300
X1098300Y186300
X1116405Y138195
T04
X1138379Y435000
X1148221Y435000
X1148221Y442800
X1138379Y442800
T05
X1100788Y461261
X1090788Y461261
X1025985Y460867
X1015985Y460867
X951182Y461261
X941182Y461261
X876379Y461261
X866379Y461261
X764174Y461261
X754174Y461261
X689371Y461261
X679371Y461261
X614568Y461261
X604568Y461261
X539765Y461261
X529765Y461261
X427560Y461261
X417560Y461261
X352757Y461261
X342757Y461261
X277954Y461261
X267954Y461261
X203150Y461261
X193150Y461261
X53544Y461261
X43544Y461261
X43544Y367757
X53544Y367757
X118347Y367757
X128347Y367757
X193150Y367757
X203150Y367757
X267954Y367757
X277954Y367757
X342757Y367757
X352757Y367757
X417560Y367757
X427560Y367757
X492363Y367757
X502363Y367757
X567166Y367757
X577166Y367757
X641969Y367757
X651969Y367757
X716772Y367757
X726772Y367757
X791576Y367757
X801576Y367757
X866379Y367757
X876379Y367757
X941182Y367757
X951182Y367757
X1053387Y367757
X1063387Y367757
X1184292Y367757
X1194292Y367757
X1259095Y367757
X1269095Y367757
X1333898Y367757
X1343898Y367757
X1427402Y367757
X1437402Y367757
X1437402Y292954
X1427402Y292954
X1343898Y292954
X1333898Y292954
X1269095Y292954
X1259095Y292954
X1194292Y292954
X1184292Y292954
X1082087Y292954
X1072087Y292954
X988583Y292954
X978583Y292954
X913780Y292954
X903780Y292954
X838977Y292954
X828977Y292954
X764174Y292954
X754174Y292954
X689371Y292954
X679371Y292954
X614568Y292954
X604568Y292954
X539765Y292954
X529765Y292954
X464961Y292954
X454961Y292954
X390158Y292954
X380158Y292954
X315355Y292954
X305355Y292954
X240552Y292954
X230552Y292954
X165749Y292954
X155749Y292954
X72245Y292954
X62245Y292954
X71595Y218150
X81595Y218150
X174450Y218150
X184450Y218150
X249253Y218150
X259253Y218150
X324056Y218150
X334056Y218150
X398859Y218150
X408859Y218150
X473662Y218150
X483662Y218150
X548465Y218150
X558465Y218150
X623269Y218150
X633269Y218150
X698072Y218150
X708072Y218150
X772875Y218150
X782875Y218150
X847678Y218150
X857678Y218150
X922481Y218150
X932481Y218150
X1044036Y218150
X1054036Y218150
X1035335Y143347
X1025335Y143347
X895080Y143347
X885080Y143347
X820276Y143347
X810276Y143347
X745473Y143347
X735473Y143347
X670670Y143347
X660670Y143347
X595867Y143347
X585867Y143347
X521064Y143347
X511064Y143347
X446261Y143347
X436261Y143347
X371457Y143347
X361457Y143347
X296654Y143347
X286654Y143347
X221851Y143347
X211851Y143347
X100296Y143347
X90296Y143347
X62894Y68544
X52894Y68544
X146398Y68544
X156398Y68544
X239902Y68544
X249902Y68544
X520414Y68544
X530414Y68544
X800926Y68544
X810926Y68544
X894430Y68544
X904430Y68544
X987934Y68544
X997934Y68544
X1081438Y68544
X1091438Y68544
X1184292Y68544
X1194292Y68544
X1259095Y68544
X1269095Y68544
X1333898Y68544
X1343898Y68544
X1269095Y143347
X1259095Y143347
X1427402Y143347
X1437402Y143347
X1437402Y218150
X1427402Y218150
X1427402Y461261
X1437402Y461261
X1343898Y461261
X1333898Y461261
X1269095Y461261
X1259095Y461261
X1194292Y461261
X1184292Y461261
T06
X1382300Y460300
X1392300Y460300
X1392300Y450300
X1382300Y450300
X1382300Y440300
X1392300Y440300
X1392300Y430300
X1382300Y430300
X1382300Y420300
X1382300Y410300
X1392300Y410300
X1392300Y420300
X1392300Y400300
X1382300Y400300
X1382300Y390300
X1392300Y390300
X1392300Y470300
X1392300Y480300
X1382300Y480300
X1382300Y470300
X1379800Y288800
X1379800Y278800
X1390800Y278800
X1390800Y288800
X1390800Y268800
X1379800Y268800
X1379800Y258800
X1390800Y258800
X1390800Y248800
X1379800Y248800
T07
X1353898Y262954
X1328898Y252954
X1279095Y262954
X1254095Y252954
X1204292Y262954
X1179292Y252954
X1092087Y262954
X1067087Y252954
X998583Y262954
X973583Y252954
X923780Y262954
X898780Y252954
X848977Y262954
X823977Y252954
X774174Y262954
X749174Y252954
X699371Y262954
X674371Y252954
X624568Y262954
X599568Y252954
X549765Y262954
X524765Y252954
X474961Y262954
X449961Y252954
X400158Y262954
X375158Y252954
X325355Y262954
X300355Y252954
X250552Y262954
X225552Y252954
X175749Y262954
X150749Y252954
X82245Y262954
X57245Y252954
X91595Y188150
X66595Y178150
X169450Y178150
X194450Y188150
X244253Y178150
X269253Y188150
X319056Y178150
X344056Y188150
X393859Y178150
X418859Y188150
X468662Y178150
X493662Y188150
X543465Y178150
X568465Y188150
X618269Y178150
X643269Y188150
X693072Y178150
X718072Y188150
X767875Y178150
X792875Y188150
X842678Y178150
X867678Y188150
X917481Y178150
X942481Y188150
X1039036Y178150
X1064036Y188150
X1045335Y113347
X1020335Y103347
X905080Y113347
X880080Y103347
X830276Y113347
X805276Y103347
X755473Y113347
X730473Y103347
X680670Y113347
X655670Y103347
X605867Y113347
X580867Y103347
X531064Y113347
X506064Y103347
X456261Y113347
X431261Y103347
X381457Y113347
X356457Y103347
X306654Y113347
X281654Y103347
X231851Y113347
X206851Y103347
X110296Y113347
X85296Y103347
X72894Y38544
X47894Y28544
X141398Y28544
X166398Y38544
X234902Y28544
X259902Y38544
X515414Y28544
X540414Y38544
X795926Y28544
X820926Y38544
X889430Y28544
X914430Y38544
X982934Y28544
X1007934Y38544
X1076438Y28544
X1101438Y38544
X1179292Y28544
X1204292Y38544
X1254095Y28544
X1279095Y38544
X1328898Y28544
X1353898Y38544
X1422402Y103347
X1447402Y113347
X1279095Y113347
X1254095Y103347
X1422402Y178150
X1447402Y188150
X1422402Y252954
X1447402Y262954
X1422402Y327757
X1447402Y337757
X1353898Y337757
X1328898Y327757
X1279095Y337757
X1254095Y327757
X1204292Y337757
X1179292Y327757
X1073387Y337757
X1048387Y327757
X961182Y337757
X936182Y327757
X886379Y337757
X861379Y327757
X811576Y337757
X786576Y327757
X736772Y337757
X711772Y327757
X661969Y337757
X636969Y327757
X587166Y337757
X562166Y327757
X512363Y337757
X487363Y327757
X437560Y337757
X412560Y327757
X362757Y337757
X337757Y327757
X287954Y337757
X262954Y327757
X213150Y337757
X188150Y327757
X138347Y337757
X113347Y327757
X63544Y337757
X38544Y327757
X38544Y421261
X63544Y431261
X188150Y421261
X213150Y431261
X262954Y421261
X287954Y431261
X337757Y421261
X362757Y431261
X412560Y421261
X437560Y431261
X524765Y421261
X549765Y431261
X599568Y421261
X624568Y431261
X674371Y421261
X699371Y431261
X749174Y421261
X774174Y431261
X861379Y421261
X886379Y431261
X936182Y421261
X961182Y431261
X1010985Y420867
X1035985Y430867
X1085788Y421261
X1110788Y431261
X1179292Y421261
X1204292Y431261
X1254095Y421261
X1279095Y431261
X1328898Y421261
X1353898Y431261
X1422402Y421261
X1447402Y431261
T08
X1452402Y441261
X1412402Y441261
X1358898Y441261
X1318898Y441261
X1284095Y441261
X1244095Y441261
X1209292Y441261
X1169292Y441261
X1115788Y441261
X1075788Y441261
X1040985Y440867
X1000985Y440867
X966182Y441261
X926182Y441261
X891379Y441261
X851379Y441261
X779174Y441261
X739174Y441261
X704371Y441261
X664371Y441261
X629568Y441261
X589568Y441261
X554765Y441261
X514765Y441261
X442560Y441261
X402560Y441261
X367757Y441261
X327757Y441261
X292954Y441261
X252954Y441261
X218150Y441261
X178150Y441261
X68544Y441261
X28544Y441261
X28544Y347757
X68544Y347757
X103347Y347757
X143347Y347757
X178150Y347757
X218150Y347757
X252954Y347757
X292954Y347757
X327757Y347757
X367757Y347757
X402560Y347757
X442560Y347757
X477363Y347757
X517363Y347757
X552166Y347757
X592166Y347757
X626969Y347757
X666969Y347757
X701772Y347757
X741772Y347757
X776576Y347757
X816576Y347757
X851379Y347757
X891379Y347757
X926182Y347757
X966182Y347757
X1038387Y347757
X1078387Y347757
X1169292Y347757
X1209292Y347757
X1244095Y347757
X1284095Y347757
X1318898Y347757
X1358898Y347757
X1412402Y347757
X1452402Y347757
X1452402Y272954
X1412402Y272954
X1358898Y272954
X1318898Y272954
X1284095Y272954
X1244095Y272954
X1209292Y272954
X1169292Y272954
X1097087Y272954
X1057087Y272954
X1003583Y272954
X963583Y272954
X928780Y272954
X888780Y272954
X853977Y272954
X813977Y272954
X779174Y272954
X739174Y272954
X704371Y272954
X664371Y272954
X629568Y272954
X589568Y272954
X554765Y272954
X514765Y272954
X479961Y272954
X439961Y272954
X405158Y272954
X365158Y272954
X330355Y272954
X290355Y272954
X255552Y272954
X215552Y272954
X180749Y272954
X140749Y272954
X87245Y272954
X47245Y272954
X56595Y198150
X96595Y198150
X159450Y198150
X199450Y198150
X234253Y198150
X274253Y198150
X309056Y198150
X349056Y198150
X383859Y198150
X423859Y198150
X458662Y198150
X498662Y198150
X533465Y198150
X573465Y198150
X608269Y198150
X648269Y198150
X683072Y198150
X723072Y198150
X757875Y198150
X797875Y198150
X832678Y198150
X872678Y198150
X907481Y198150
X947481Y198150
X1029036Y198150
X1069036Y198150
X1050335Y123347
X1010335Y123347
X910080Y123347
X870080Y123347
X835276Y123347
X795276Y123347
X760473Y123347
X720473Y123347
X685670Y123347
X645670Y123347
X610867Y123347
X570867Y123347
X536064Y123347
X496064Y123347
X461261Y123347
X421261Y123347
X386457Y123347
X346457Y123347
X311654Y123347
X271654Y123347
X236851Y123347
X196851Y123347
X115296Y123347
X75296Y123347
X77894Y48544
X37894Y48544
X131398Y48544
X171398Y48544
X224902Y48544
X264902Y48544
X505414Y48544
X545414Y48544
X785926Y48544
X825926Y48544
X879430Y48544
X919430Y48544
X972934Y48544
X1012934Y48544
X1066438Y48544
X1106438Y48544
X1169292Y48544
X1209292Y48544
X1244095Y48544
X1284095Y48544
X1318898Y48544
X1358898Y48544
X1412402Y123347
X1452402Y123347
X1284095Y123347
X1244095Y123347
X1412402Y198150
X1452402Y198150
T09
X1167000Y453500
X1119600Y453500
T10
X13111Y13111
X316261Y24922
X650906Y24922
X965867Y123347
X1209961Y111536
X1143032Y24922
X1465867Y13111
X1296576Y206024
X993426Y347757
X816261Y454056
X481615Y454056
X13111Y477678
X367442Y209961
X666654Y206024
X1469804Y477678
T11
X1432402Y441261
X1338898Y441261
X1264095Y441261
X1189292Y441261
X1095788Y441261
X1020985Y440867
X946182Y441261
X871379Y441261
X759174Y441261
X684371Y441261
X609568Y441261
X534765Y441261
X422560Y441261
X347757Y441261
X272954Y441261
X198150Y441261
X48544Y441261
X48544Y347757
X123347Y347757
X198150Y347757
X272954Y347757
X347757Y347757
X422560Y347757
X497363Y347757
X572166Y347757
X646969Y347757
X721772Y347757
X796576Y347757
X871379Y347757
X946182Y347757
X1058387Y347757
X1189292Y347757
X1264095Y347757
X1338898Y347757
X1432402Y347757
X1432402Y272954
X1338898Y272954
X1264095Y272954
X1189292Y272954
X1077087Y272954
X983583Y272954
X908780Y272954
X833977Y272954
X759174Y272954
X684371Y272954
X609568Y272954
X534765Y272954
X459961Y272954
X385158Y272954
X310355Y272954
X235552Y272954
X160749Y272954
X67245Y272954
X76595Y198150
X179450Y198150
X254253Y198150
X329056Y198150
X403859Y198150
X478662Y198150
X553465Y198150
X628269Y198150
X703072Y198150
X777875Y198150
X852678Y198150
X927481Y198150
X1049036Y198150
X1030335Y123347
X890080Y123347
X815276Y123347
X740473Y123347
X665670Y123347
X590867Y123347
X516064Y123347
X441261Y123347
X366457Y123347
X291654Y123347
X216851Y123347
X95296Y123347
X57894Y48544
X151398Y48544
X244902Y48544
X525414Y48544
X805926Y48544
X899430Y48544
X992934Y48544
X1086438Y48544
X1189292Y48544
X1264095Y48544
X1338898Y48544
X1264095Y123347
X1432402Y123347
X1432402Y198150
M30
